<svg width="480" height="410" viewBox="0 0 480 410" xmlns="http://www.w3.org/2000/svg" xmlns:xlink="http://www.w3.org/1999/xlink"><title>chart</title><defs><path id="a" d="M0 61V0h21v61z"/><path id="c" d="M46.76 70H.4V.527h46.36V70z"/><path id="e" d="M65 65V0H0v65z"/></defs><g fill="none" fill-rule="evenodd"><path fill="#E5E5E2" d="M375 386h105v20H375z"/><text font-family="Poppins-SemiBold, Poppins" font-size="36" font-weight="500" fill="#FFF"><tspan x="402.21" y="409">6%</tspan></text><path fill="#E5E5E2" d="M250 321h105v85H250z"/><text font-family="Poppins-SemiBold, Poppins" font-size="36" font-weight="500" fill="#FFF"><tspan x="266.806" y="361">25%</tspan></text><path fill="#E5E5E2" d="M125 134h105v272H125z"/><text font-family="Poppins-SemiBold, Poppins" font-size="36" font-weight="500" fill="#FFF"><tspan x="145.262" y="174">81%</tspan></text><path fill="#E5E5E2" d="M0 69h105v337H0z"/><text font-family="Poppins-SemiBold, Poppins" font-size="36" font-weight="500" fill="#FFF"><tspan x="8.58" y="109">100%</tspan></text><path d="M74.746 21.65c-6.81 9.013-12.814 9.324-22.05 9.79h-.315c-11.237-.007-19.207-4.15-19.207-5.69-.006-1.463 7.19-5.27 17.54-5.65l1.846-4.575c-.06 0-.117-.006-.18-.006-15.358 0-24.38 4.85-24.38 9.475v6.21C28 34.06 29.82 59 51.727 59c21.905 0 25.035-24.942 25.035-27.794v-6.21c0-1.215-.63-2.445-1.828-3.598l-.188.252zM76.75 6.835c-1.38-1.024-3.346-.75-4.38.625L61.08 22.395l7.31-18.13c.645-1.59-.137-3.4-1.742-4.042-1.59-.636-3.43.134-4.07 1.736L52.382 27.246c9.02-.457 13.385-.705 18.987-8.11l6.005-7.953c1.04-1.37.76-3.317-.623-4.35z" fill-rule="nonzero" fill="#D4503E"/><g transform="translate(169 63)"><mask id="b" fill="#fff"><use xlink:href="#a"/></mask><path d="M21 17.973c0 3.29-.62 6.055-1.87 8.288-1.246 2.238-2.91 3.774-4.987 4.614l1.475 27.948c.044.59-.128 1.1-.524 1.533-.395.43-.872.645-1.443.645h-6.3c-.57 0-1.052-.215-1.444-.645-.396-.433-.568-.944-.524-1.533L6.86 30.874c-2.08-.84-3.744-2.376-4.99-4.613C.624 24.03 0 21.265 0 17.974c0-2.907.464-5.736 1.393-8.493.93-2.758 2.216-5.027 3.857-6.81C6.89.89 8.642 0 10.5 0c1.86 0 3.61.89 5.25 2.67 1.64 1.783 2.928 4.052 3.857 6.81C20.54 12.237 21 15.066 21 17.973" fill="#D4503E" mask="url(#b)"/></g><path d="M320 233.998c0 3.867-3.135 7.002-6.998 7.002-3.872 0-7.002-3.135-7.002-7.002 0-3.868 3.13-6.998 7.002-6.998 3.863 0 6.998 3.13 6.998 6.998" fill="#D4503E"/><g transform="translate(276 241)"><mask id="d" fill="#fff"><use xlink:href="#c"/></mask><path d="M26.49.527L8.283 9.097.4 29.582s1.88 2.047 6.194-1.677l6.85-14.528 8.352-1.488-5.252 13.035s-3.194 5.963-.19 9.686l21.208 15.276L39.63 62.18s1.5 7.634 7.13 7.82V45.6L31.745 29.953l5.442-11.734s2.252-2.794 1.03-8.324C36.887 3.83 26.49.526 26.49.526" fill="#D4503E" mask="url(#d)"/></g><path d="M331.996 268H314l2.7-6 9.716.936s5.76.563 5.58 5.064M297 283.333s-5.37-2.665-7.592-7.333l-5.93 10-12.96 4s-5.188 1.714-4.445 8l21.85-5.33 9.077-9.337z" fill="#D4503E"/><g transform="translate(392 311)"><mask id="f" fill="#fff"><use xlink:href="#e"/></mask><path d="M56.06 26.26l-.942-.944L38.74 8.938l1.007-1.506 1.703-2.55.67 2.615c.13.505.524.9 1.03 1.028l4.893 1.256 1.255 4.894c.13.505.524.9 1.03 1.03l4.892 1.254 1.255 4.893c.13.506.524.9 1.03 1.03l2.612.67-4.056 2.71zm-8.558 5.84l5.222-5.138 1.136 1.136-5.18 5.18-1.178-1.178zM35.3 46.66l-1.18-1.18L18.34 29.7l10.183-10.18 1.178-1.18 15.97 15.97.99.99L35.3 46.66zm-7.202 7.2l-1.178-1.178 5.165-5.196 1.193 1.194-5.18 5.18zm-4.548 6.257l-.653-2.55-.017-.063c-.13-.505-.524-.9-1.03-1.03l-4.892-1.253-1.255-4.893c-.13-.505-.524-.9-1.03-1.03l-4.892-1.254-1.255-4.894c-.13-.506-.523-.9-1.028-1.03l-2.615-.67 2.644-1.766 1.412-.943 16.03 16.03 1.29 1.292-2.708 4.055zM64.98 22.72c-.095-.555-.508-1.003-1.054-1.143l-4.893-1.254-1.255-4.894c-.13-.506-.524-.9-1.03-1.03l-4.892-1.255L50.6 8.252c-.128-.505-.523-.9-1.028-1.03L44.678 5.97l-1.255-4.894c-.14-.546-.588-.96-1.144-1.054-.556-.095-1.116.146-1.43.615L35.793 8.21 8.21 35.79l-7.575 5.06c-.47.312-.71.872-.615 1.427.095.555.508 1.003 1.054 1.143l4.894 1.255 1.255 4.894c.13.505.524.9 1.03 1.03l4.893 1.254L14.4 56.75c.13.504.524.9 1.03 1.028l4.893 1.255 1.254 4.893c.14.546.588.96 1.144 1.054.08.013.16.02.24.02.473 0 .92-.234 1.19-.635l5.058-7.574L56.79 29.21l7.575-5.06c.468-.312.71-.872.615-1.427z" fill="#D4503E" mask="url(#f)"/></g></g></svg>