<svg width="720" height="600" viewBox="0 0 720 600" xmlns="http://www.w3.org/2000/svg"><title>final-logo</title><g fill="none" fill-rule="evenodd"><path fill="#FFF" d="M0 0h720v600H0z"/><path d="M675.075 206H44.925c-2.71 0-4.925-2.148-4.925-4.772V94.778C40 92.152 42.216 90 44.925 90h630.15c2.71 0 4.925 2.15 4.925 4.78v106.448c0 2.624-2.216 4.772-4.925 4.772z" stroke="#313636" stroke-width="2.368" fill="#FFF"/><path d="M96.17 158.694c1.536 7.325 5.2 12.703 13.482 12.703 6.505 0 11.588-3.434 11.588-10.07 0-7.323-6.387-9.156-12.417-11.56-8.99-3.652-17.5-5.945-17.5-17.16 0-10.07 8.392-15.675 18.09-15.675 10.287 0 16.314 5.724 18.802 14.993l-7.57 2.168c-1.417-5.838-4.612-9.957-11.35-9.957-5.09 0-10.055 2.518-10.055 7.893 0 5.61 3.546 7.213 8.278 9.27l13.126 5.61c5.562 2.97 8.518 7.78 8.518 13.96 0 11.326-8.164 17.735-19.517 17.735-11.474 0-18.687-7.097-20.578-17.735l7.095-2.176h.007zm86.324-13.616c7.81 0 11.95-3.434 11.95-10.3 0-8.12-5.44-9.954-11.947-9.954H171.62v20.254h10.88-.006zm-10.878 32.496h-7.92v-59.618h19.155c14.313 0 19.872 7.553 19.872 16.252 0 12.59-9.223 17.735-17.855 17.735H171.62v25.635l-.004-.004zm79.355-50.692l-8.746 27.58h17.494l-8.747-27.58zm-10.88 34.44l-5.798 17.743-7.8-2.75 19.392-58.35h10.173l19.395 58.357-7.806 2.75-5.677-17.736h-21.877l-.003-.013zm103.95 4.808c-4.968 7.554-10.88 12.475-20.46 12.475-17.976 0-23.65-16.02-23.65-30.78 0-23.803 13.005-30.896 22.942-30.896 9.58 0 15.135 4.803 19.51 12.702l-7.213 3.545c-2.597-4.807-6.15-9.04-12.18-9.04-12.296 0-14.78 14.415-14.78 23.573 0 9.262 2.248 23.684 14.783 23.684 7.214 0 10.88-4.233 14.55-9.61l6.504 4.346h-.007zm31.928-48.17H414.4v6.864h-30.51v17.85h25.192v6.862H383.89v21.173h30.51v6.864H375.97V117.96zm90.35 52.75c6.977 0 13.483-1.488 13.483-9.612 0-5.952-4.02-10.763-11.595-10.763l-11.113.007v20.367h9.226zm-.354-27.234c6.86 0 10.28-4.24 10.28-9.614 0-7.094-5.197-9.034-10.752-9.034l-8.4-.007v18.656h8.872zm-23.18 34.092v-6.862h6.383v-45.888h-6.384v-6.86h19.392c15.607 0 22.355 5.725 22.355 15.907 0 5.15-2.248 9.72-6.977 12.243 6.74 2.055 10.523 7.665 10.523 14.416 0 10.753-7.33 17.047-20.225 17.047h-25.067v-.002zm92.004-50.686l-8.747 27.58h17.502l-8.754-27.58zm-10.88 34.44l-5.792 17.743-7.81-2.75 19.392-58.353h10.173l19.396 58.357-7.806 2.748-5.673-17.735H523.9l.007-.01zm82.31-16.13c7.685 0 12.775-4.233 12.775-10.984 0-5.382-3.314-9.384-10.416-9.384h-12.762v20.368h10.41-.008zm-18.33-27.233h20.932c10.287 0 18.444 4.696 18.444 16.248 0 7.32-5.083 14.532-12.532 16.704l15.135 24.145-6.86 4.005-15.728-27.005h-11.465v25.517h-7.92v-59.618l-.008.003z" fill="#313636" fill-rule="nonzero"/><path d="M518.05 295.77H202.465c-1.356 0-2.466-1.07-2.466-2.376V240.38c0-1.31 1.11-2.38 2.466-2.38H518.05c1.355 0 2.465 1.07 2.465 2.38v53.014c0 1.307-1.11 2.377-2.466 2.377z" stroke="#313636" stroke-width="2.368" fill="#FFF"/><path d="M228.25 272.52c.77 3.68 2.602 6.383 6.746 6.383 3.255 0 5.798-1.726 5.798-5.06 0-3.68-3.196-4.6-6.213-5.81-4.497-1.835-8.755-2.987-8.755-8.623 0-5.06 4.2-7.876 9.05-7.876 5.15 0 8.164 2.876 9.41 7.534l-3.79 1.09c-.708-2.934-2.306-5.004-5.678-5.004-2.546 0-5.03 1.265-5.03 3.966 0 2.82 1.774 3.625 4.14 4.66l6.57 2.818c2.782 1.492 4.26 3.91 4.26 7.015 0 5.692-4.084 8.912-9.764 8.912-5.74 0-9.35-3.566-10.297-8.912l3.55-1.093h.004zm43.192-6.843c3.908 0 5.98-1.725 5.98-5.175 0-4.08-2.723-5.002-5.978-5.002H266v10.177h5.445-.003zM266 282.007h-3.964v-29.96h9.585c7.162 0 9.943 3.797 9.943 8.168 0 6.326-4.614 8.912-8.934 8.912H266v12.882-.003zm39.704-25.473l-4.377 13.858h8.753l-4.376-13.858zm-5.444 17.307l-2.9 8.916-3.904-1.38 9.703-29.323h5.09l9.703 29.325-3.906 1.382-2.84-8.913H300.26v-.006zm52.01 2.416c-2.485 3.796-5.443 6.27-10.236 6.27-8.995 0-11.833-8.05-11.833-15.47 0-11.96 6.507-15.524 11.48-15.524 4.792 0 7.572 2.414 9.76 6.383l-3.608 1.782c-1.3-2.416-3.076-4.543-6.094-4.543-6.152 0-7.395 7.244-7.395 11.846 0 4.654 1.125 11.902 7.397 11.902 3.61 0 5.444-2.128 7.28-4.83l3.254 2.184h-.003zm15.976-24.206h19.23v3.45h-15.267v8.97h12.604v3.448H372.21v10.64h15.265v3.45h-19.23V252.05zm45.205 26.507c3.493 0 6.748-.747 6.748-4.83 0-2.99-2.012-5.408-5.802-5.408l-5.56.002v10.235h4.615zm-.176-13.684c3.432 0 5.144-2.13 5.144-4.832 0-3.563-2.6-4.54-5.38-4.54l-4.203-.002v9.375h4.44zm-11.598 17.13v-3.447h3.194v-23.06h-3.194v-3.446h9.703c7.807 0 11.184 2.876 11.184 7.993 0 2.588-1.125 4.884-3.49 6.152 3.372 1.033 5.264 3.852 5.264 7.244 0 5.403-3.668 8.566-10.12 8.566h-12.542v-.002zm46.034-25.47l-4.377 13.86h8.757l-4.38-13.86zm-5.444 17.308l-2.898 8.916-3.907-1.38 9.703-29.325h5.09l9.705 29.326-3.906 1.382-2.84-8.912h-10.95l.004-.005zm41.183-8.105c3.845 0 6.39-2.128 6.39-5.52 0-2.704-1.657-4.715-5.21-4.715h-6.385v10.235h5.208-.004zm-9.172-13.685h10.473c5.15 0 9.23 2.36 9.23 8.165 0 3.68-2.543 7.303-6.27 8.394l7.572 12.132-3.432 2.013-7.87-13.57h-5.735v12.822h-3.964v-29.96l-.002.003z" fill="#313636" fill-rule="nonzero"/><g><path d="M438.513 356.885H281.23c-.677 0-1.23-.534-1.23-1.188V329.19c0-.654.553-1.19 1.23-1.19h157.283c.676 0 1.23.536 1.23 1.19v26.507c0 .654-.554 1.188-1.23 1.188z" stroke="#313636" stroke-width="2.368" fill="#FFF"/><path d="M294.08 345.26c.383 1.84 1.296 3.192 3.362 3.192 1.622 0 2.89-.863 2.89-2.53 0-1.84-1.593-2.3-3.097-2.905-2.242-.918-4.364-1.494-4.364-4.312 0-2.53 2.094-3.938 4.512-3.938 2.565 0 4.068 1.438 4.69 3.767l-1.89.545c-.352-1.468-1.15-2.503-2.83-2.503-1.27 0-2.507.633-2.507 1.983 0 1.41.885 1.813 2.065 2.33l3.273 1.41c1.387.745 2.124 1.954 2.124 3.506 0 2.846-2.036 4.457-4.867 4.457-2.86 0-4.66-1.784-5.132-4.457l1.77-.546h.002zm21.526-3.42c1.948 0 2.98-.864 2.98-2.59 0-2.04-1.357-2.5-2.98-2.5h-2.712v5.09h2.714-.002zm-2.712 8.164h-1.976v-14.98h4.777c3.57 0 4.955 1.898 4.955 4.083 0 3.163-2.3 4.457-4.452 4.457h-3.304v6.44zm19.788-12.737l-2.18 6.93h4.36l-2.18-6.93zm-2.713 8.653l-1.447 4.458-1.945-.69 4.836-14.66h2.536l4.837 14.66-1.947.692-1.415-4.456h-5.455v-.004zm25.92 1.208c-1.238 1.898-2.713 3.135-5.102 3.135-4.482 0-5.897-4.026-5.897-7.734 0-5.982 3.244-7.764 5.722-7.764 2.39 0 3.774 1.207 4.865 3.192l-1.8.89c-.646-1.207-1.532-2.27-3.036-2.27-3.065 0-3.685 3.62-3.685 5.922 0 2.327.56 5.95 3.687 5.95 1.8 0 2.713-1.063 3.628-2.414l1.622 1.092zm7.962-12.103h9.584v1.725h-7.608v4.485h6.282v1.724h-6.282v5.32h7.608v1.724h-9.584v-14.98zm22.53 13.254c1.74 0 3.363-.375 3.363-2.416 0-1.496-1.003-2.704-2.892-2.704h-2.77v5.12h2.3zm-.088-6.844c1.71 0 2.564-1.065 2.564-2.415 0-1.782-1.296-2.27-2.68-2.27h-2.096v4.686h2.212zm-5.78 8.566v-1.724h1.592v-11.53h-1.592v-1.723h4.836c3.89 0 5.574 1.438 5.574 3.996 0 1.295-.56 2.443-1.74 3.078 1.68.516 2.624 1.925 2.624 3.622 0 2.7-1.828 4.283-5.043 4.283h-6.25zm22.943-12.735l-2.18 6.93h4.363l-2.183-6.93zm-2.714 8.653l-1.444 4.458-1.948-.69 4.836-14.662h2.536l4.837 14.662-1.946.69-1.414-4.455h-5.458v-.003zm20.526-4.053c1.915 0 3.185-1.063 3.185-2.76 0-1.352-.827-2.357-2.598-2.357h-3.182v5.117h2.596zm-4.572-6.842h5.22c2.565 0 4.6 1.18 4.6 4.082 0 1.84-1.268 3.652-3.126 4.198l3.774 6.066-1.71 1.007-3.922-6.785h-2.86v6.412H416.7v-14.98h-.002z" fill="#313636" fill-rule="nonzero"/></g><g><path fill="#313737" d="M128 412h75v81h-75z"/><path stroke="#313737" d="M128 412h75v98h-75z"/><text font-family="Roboto-Medium, Roboto" font-size="14" font-weight="400" fill="#313737" transform="translate(128 412)"><tspan x="9.356" y="94">#313737</tspan></text></g><text font-family="OratorStd, Orator Std" font-size="24" font-weight="400" fill="#313737"><tspan x="233" y="428">orator medium lower case</tspan> <tspan x="233" y="453" font-family="Roboto-Light, Roboto" font-weight="300">Roboto light</tspan> <tspan x="233" y="482" font-family="Roboto-Medium, Roboto">Roboto medium</tspan></text></g></svg>