<svg width="1440" height="600" viewBox="0 0 1440 600" xmlns="http://www.w3.org/2000/svg" xmlns:xlink="http://www.w3.org/1999/xlink"><title>personas</title><defs><path id="a" d="M0 0h1440v600H0z"/><path id="c" d="M162.85.31v107.03H.2V.31H162.85z"/><path id="e" d="M80.088 0H0v83.448h160.175V0z"/><path id="g" d="M98.016.234H.876V72.84h97.14V.233z"/><path id="i" d="M108.52 216.27H.47V0h108.05v216.27z"/></defs><g fill="none" fill-rule="evenodd"><mask id="b" fill="#fff"><use xlink:href="#a"/></mask><use fill="#FFF" xlink:href="#a"/><g mask="url(#b)"><path stroke="#D8D8D8" stroke-width="9" fill="#FFF" d="M-23-32h612v782.125H-23z"/><path fill="#D8D8D8" d="M-23-32h612V82.554H-23z"/><path d="M121.796 45.486L110.426 38l-22.347.95-41.25-.118-5.895 7.486-11.37 16.635c4.63 25.787 13.054 22.044 13.054 22.044l4.72 16.03c3.186 5.77 6.974 8.05 6.974 8.05l6.893 29.497-7.148 7.564s-20.208 35.16.784 41.995c20.992 6.833 71.74-19.82 94.808-54.9-3.31.823-26.17-13.717-26.17-13.717l-6.74 6.238-.42-5.82-9.266 9.148 7.16-13.31s-9.092 9.52-8.845 9.15c8.173-12.155 9.688-20.378 9.688-20.378 6.317-4.575 7.16-19.547 7.16-19.547 7.58-1.248 4.632-13.726 4.632-13.726l-2.106-4.99.42-9.15-3.368-11.644z" fill="#FFAD99"/><path d="M77.282 122.795c16.57 3.157 31.98-10.624 31.98-10.624l12.585-47.233c3.156-4.272 3.318-7.806 3.318-7.806l-.42 9.15 2.105 4.99s2.948 12.48-4.632 13.727c0 0-.843 14.972-7.16 19.547 0 0-.6 3.252-3.077 8.69 0 0-16.382 16.452-30.047 11.57l-4.65-2.01zM86.876 142.03l-5.233 14.643-9.013 9.188 14.828-6.317 40.702-9.186-35.18 2.01-6.685 1.722M40.577 73.58l-4.31-4.91-4.31-.33 3.646 2.95v2.618l1.66-1.636M37.925 60.81l-4.974 4.913-.33-2.948" fill="#FF8466"/><g transform="translate(18 37.127)"><mask id="d" fill="#fff"><use xlink:href="#c"/></mask><path d="M130.327 25.246c.39.415 10.893 6.633 8.17 17.57h-1.453s-9.077-20.08-6.717-17.57m10.167 53.965c-1.27-9.86-13.98-8.246-16.885-9.142-2.906-.898-1.27-1.434-1.27-1.434 38.306-22.232 7.922-49.374 7.922-49.374s3.7-12.565-5.566-14.23C115.43 3.37 92.426.873 92.426.873l11.37 7.486s-15.16-4.574-29.902 3.328L65.05 13.35S53.68.04 28.83 10.02l-5.896-.83 5.896-7.488L11.563.31l-5.12 16.176C-16.02 46.236 29.342 63.9 29.342 63.9l-4.72-16.03s-8.424 3.742-13.057-22.043l11.792-5.407 1.264-4.99 3.368.83 5.896-3.742s-8 17.884 7.16 22.46c15.16 4.573 22.32-10.815 22.32-10.815l2.528-6.654h6.738l.843 7.068s8.002 17.886 20.636 11.23c12.634-6.654 13.055-15.805 13.055-15.805l-.42 9.15 2.105 4.992s2.948 12.477-4.633 13.724c0 0-.842 14.97-7.16 19.546 0 0-1.514 8.224-9.686 20.38-.246.368 8.845-9.15 8.845-9.15l-7.16 13.31 9.266-9.15.422 5.822 6.74-6.24s22.86 14.54 26.17 13.717c0 0 7.266.83 31.2 11.236-3.144-1.725-20.835-16.312-22.358-28.13" fill="#FF603A" mask="url(#d)"/></g><g transform="translate(3 -27.062)"><mask id="f" fill="#fff"><use xlink:href="#e"/></mask><path d="M85.08 66.013l-41.25-.12-13.476 2.496-8.91 12.285L.257 76.138 0 71.348 17.105 61.01l12.51-1.26 2.552-11.092 1.532-1.26s.254-16.64 5.36-25.465c5.106-8.823 6.127-14.62 14.552-17.142C62.037 2.27 86.034.253 86.034.253L98.544 0l15.317 5.042 4.852 7.06 7.914 18.907 1.02 16.89 3.32 4.54 3.063 10.084s28.082-1.765 26.04 8.57c-2.043 10.338-14.807 12.354-14.807 12.354s-11.726-13.81-20.992-15.475c-9.264-1.663-16.845-2.91-16.845-2.91l-22.346.95z" fill="#FFD6CC" mask="url(#f)"/></g><path d="M46.83 38.832l-13.476 2.495-8.91 12.286-21.188-4.537-.032-.6s10.32-12.138 19.475-12.96l24.13 3.316zM163.07 44.033c-2.043 10.337-14.808 12.354-14.808 12.354s-11.726-13.813-20.99-15.476c-9.266-1.663-16.847-2.91-16.847-2.91 42.58-2.86 52.644 6.033 52.644 6.033" fill="#FFBEAF"/><path d="M79.953 12.577c30.71-2.1 50.694 8.262 50.694 8.262l3.318 4.537 3.064 10.084s-31.093-2.82-55.66-1.888c-24.567.934-48.756-.885-48.756-.885l2.553-11.09 1.532-1.263s12.544-5.657 43.253-7.757" fill="#FF603A"/><text font-family="Lato-Black, Lato" font-size="64" font-weight="700" transform="translate(-23 -32)"><tspan x="237" y="113.872" fill="#4A4A4A">MIKA</tspan></text><text font-family="Lato-Black, Lato" font-size="12" font-weight="700" transform="translate(-23 -32)"><tspan x="237" y="343.067" fill="#4A4A4A">MOTIVATIONS</tspan>  <tspan x="237" y="369.067" font-family="Lato-Regular, Lato" font-weight="normal" fill="#4A4A4A">After Mika gets the kids off to school, she runs errands and then </tspan> <tspan x="237" y="389.067" font-family="Lato-Regular, Lato" font-weight="normal" fill="#4A4A4A">goes to work, frequently skipping lunch. She can’t bring along an </tspan> <tspan x="237" y="409.067" font-family="Lato-Regular, Lato" font-weight="normal" fill="#4A4A4A">energy bar to snack on at work because her school is a nut-free </tspan> <tspan x="237" y="429.067" font-family="Lato-Regular, Lato" font-weight="normal" fill="#4A4A4A">zone. She also tries to eat a gluten-free diet, so she rules out energy </tspan> <tspan x="237" y="449.067" font-family="Lato-Regular, Lato" font-weight="normal" fill="#4A4A4A">bars because she doesn’t think there are any options.</tspan>  <tspan x="237" y="501.067" fill="#4A4A4A">GOALS</tspan>  <tspan x="237" y="527.067" font-family="Lato-Regular, Lato" font-weight="normal" fill="#4A4A4A">• A fast, nutritious lunch</tspan> <tspan x="237" y="547.067" font-family="Lato-Regular, Lato" font-weight="normal" fill="#4A4A4A">• A nut-free, gluten-free meal</tspan> <tspan x="237" y="567.067" font-family="Lato-Regular, Lato" font-weight="normal" fill="#4A4A4A">• Being able to bring outside food to her job </tspan>  <tspan x="237" y="619.067" fill="#4A4A4A">FRUSTRATIONS</tspan>  <tspan x="237" y="645.067" font-family="Lato-Regular, Lato" font-weight="normal" fill="#4A4A4A">• Not enough time to eat lunch</tspan> <tspan x="237" y="665.067" font-family="Lato-Regular, Lato" font-weight="normal" fill="#4A4A4A">• No easy snack options to bring to work</tspan> <tspan x="237" y="685.067" font-family="Lato-Regular, Lato" font-weight="normal" fill="#4A4A4A">• No nut-free, gluten-free alternatives</tspan></text><text font-family="Lato-Black, Lato" font-size="12" font-weight="700" transform="translate(-23 -32)"><tspan x="237" y="242.095" fill="#4A4A4A">AGE</tspan> <tspan x="261.168" y="242.095" font-family="Lato-Regular, Lato" font-weight="normal" fill="#4A4A4A"> 42</tspan> <tspan x="237" y="262.095" fill="#4A4A4A">OCCUPATION</tspan> <tspan x="317.28" y="262.095" font-family="Lato-Regular, Lato" font-weight="normal" fill="#4A4A4A"> Teaching Assistant</tspan> <tspan x="237" y="282.095" fill="#4A4A4A">LOCATION</tspan> <tspan x="299.256" y="282.095" font-family="Lato-Regular, Lato" font-weight="normal" fill="#4A4A4A"> Denver, CO</tspan> <tspan x="237" y="302.095" fill="#4A4A4A">GENDER</tspan> <tspan x="285.06" y="302.095" font-family="Lato-Regular, Lato" font-weight="normal" fill="#4A4A4A"> Female</tspan></text><text font-family="Lato-Regular, Lato" font-size="12" transform="translate(-23 -32)"><tspan x="237" y="133.466" fill="#4A4A4A">Mika, a married mother of two, </tspan> <tspan x="400.08" y="133.466" font-family="Lato-Black, Lato" font-weight="700" fill="#4A4A4A">works part-time</tspan> <tspan x="488.94" y="133.466" fill="#4A4A4A"> at her daughter’s </tspan> <tspan x="237" y="153.466" fill="#4A4A4A">elementary school. She and her husband renovated a vintage </tspan> <tspan x="237" y="173.466" fill="#4A4A4A">camper which they use to escape into the mountains on summer </tspan> <tspan x="237" y="193.466" fill="#4A4A4A">weekends. </tspan></text><g><path fill="#D8D8D8" d="M-23 198.095h200v164.918H-23z"/><path fill="#D8D8D8" d="M140.998 181.4l12.163 17.792-23.696.413"/><text font-family="Lato-LightItalic, Lato" font-size="18" font-style="italic" font-weight="300" fill="#4A4A4A" transform="translate(-23 181.307)"><tspan x="25.363" y="46.741">“Most energy bars do </tspan> <tspan x="38.818" y="68.741">not have nut-free </tspan> <tspan x="31.789" y="90.741">varieties. Therefore </tspan> <tspan x="31.753" y="112.741">elementary schools </tspan> <tspan x="34.651" y="134.741">won’t let you bring </tspan> <tspan x="68.46" y="156.741">them in.” </tspan></text></g></g><g mask="url(#b)"><path stroke="#D8D8D8" stroke-width="9" fill="#FFF" d="M1015-3h612v782.125h-612z"/><path fill="#D8D8D8" d="M1015-3h612v114.554h-612z"/><path d="M1163.69 28.945s-7.5-19.938-40.114-19.672c-20.813.17-39.37 47.763-39.37 47.763l-4.69 17.957s-3.598 7.4-.6 13.32c2.998 5.923 6.595 13.028 6.895 16.284 0 0 .97 2.11 3.377 3.47 2.407 1.357 4.47-1.36 4.47-1.36l1.747 5.588 3.298 5.328s1.198 18.06 3.297 22.204c0 0-7.638 17.05-6.95 20.1.685 3.05 31.612 16.955 31.612 16.955l47.083-18.786 2-8.362s-6.772-8.876-8.83-11.588c-2.06-2.71-7.657-5.72-7.657-5.72s-1.2-9.474.3-11.842c1.5-2.37 7.478-10.857 8.693-19.538 0 0 4.198 1.48 5.697-6.81 1.5-8.29 3.298-24.276-1.2-29.308l-9.058-35.983z" fill="#CEEADE"/><path d="M1091.112 96.138l-2.714-3.655s.74-6.09-.246-6.577c-.987-.488-3.948 7.065-3.948 7.065l3.207 2.193 3.702.975zM1082.478 90.047s-2.22-7.552-.493-9.257c0 0-2.467.973-2.22 3.896.246 2.924 2.713 5.36 2.713 5.36M1146.91 131.314s-17.066 4.047-28.167-.826c-11.102-4.872-18.503-10.72-18.503-10.72s12.83 19.004 20.97 21.927c8.14 2.924 25.7-10.38 25.7-10.38M1172.464 92.798l-1.01-2.655 1.01-5.313-2.354-7.637-2.017 9.628.336 6.643 2.016 3.983" fill="#80C9AB"/><path d="M1064.77 171.102l28.235-21.505c.6-9.177 8.994-9.77 8.994-9.77s-3.83 10.246-3.144 13.296c.686 3.05 23.68 13.896 23.68 13.896l42.557-11.525 2.403-5.76s-6.52-5.763-8.58-8.474c-2.06-2.71.34-8.834.34-8.834s13.79.887 16.49.592c2.697-.296 11.39 12.433 11.39 12.433l2.7 5.33c7.794.297 7.494 7.106 10.492 10.658 2.998 3.553 6.295 5.625 7.794 7.402 1.5 1.776 9.294 2.96 17.087 3.847 6.792.776-104.95 47.484-159.168 20.74l-1.272-22.325z" fill="#80C9AB"/><path d="M1094 178.242c10.2 3.662 30.673 8.524 34.31 6.41 3.634-2.115-3.71.915-14.837-3.664-11.128-4.577-17.62-13.735-17.62-13.735l-19.884 4.638c-.45 1.59-1.138 3.094-2.167 4.28-1.165 1.342-2.11 2.358-2.866 3.125 0 0 12.863-4.716 23.063-1.053M1175.746 133.018c-2.698.296-16.488-.593-16.488-.593s-2.4 6.125-.342 8.837c2.06 2.71 8.58 8.473 8.58 8.473l6.25-6.29 2-10.427zM1198.78 166.337s-16.69 3.663-25.963 9.157-20.4 10.073-20.4 10.073 2.782.916 16.69 1.83c13.91.918 29.673-21.06 29.673-21.06M1187.653 152.603l-12.055 8.24-13.908 6.41 12.054-9.157" fill="#64BD99"/><g transform="translate(1076 4.666)"><mask id="h" fill="#fff"><use xlink:href="#g"/></mask><path d="M96.748 60.26s2.398-13.913.6-23.682c-1.8-9.77-11.692-30.79-24.883-30.493 0 0-26.3-11.882-45.75-1.783C8.82 13.59 7.196 23.862 4.844 32.73c-2.593 9.764-6.726 31.38-1.33 37.596l7.61 2.513s8.94-40.068 51.23-53.65l6.878-9.168-2.063 9.17s8.596 4.753 13.41 13.58c4.814 8.83 11.347 33.956 11.347 33.956l4.82-6.467z" fill="#80C9AB" mask="url(#h)"/></g><path d="M1174.078 96.538l-.568 8.06-6.015.033s.587-2.38.756-3.585l-.21-4.517 6.038.01z" fill="#64BD99"/><path d="M1095.403 112.295l-1.747-5.587s-2.063 2.716-4.47 1.358c-2.407-1.358-3.376-3.47-3.376-3.47s-11.092 7.7-12.89 21.613l-6.878 8.166c-9.267 8.136-1.03 19.658-1.03 19.658l-.687 6.44s-3.43 1.655-3.43 6.1c0 10.777 3.774 12.88 3.774 12.88-8.238 6.1-6.522 34.57-6.522 34.57 17.16-10.508 11.67-35.25 11.67-35.25l2.06-.337.342-2.713-6.177-2.032 5.148-1.696v-7.793c4.462-2.713 3.776-12.88 3.776-12.88 5.834-2.712 5.834-2.712 4.118-9.83-1.716-7.117 6.537-7.393 12.03-10.55 0 0 6.09-2.663 4.29-18.648" fill="#80C9AB"/><path fill="#64BD99" d="M1089.216 100.84l-3.842 7.057 6.123 3.33 3.55-6.873"/><text font-family="Lato-Black, Lato" font-size="64" font-weight="700" transform="translate(1015 -3)"><tspan x="237" y="113.872" fill="#4A4A4A">ALLISON</tspan></text><text font-family="Lato-Black, Lato" font-size="12" font-weight="700" transform="translate(1015 -3)"><tspan x="237" y="343.067" fill="#4A4A4A">MOTIVATIONS</tspan>  <tspan x="237" y="369.067" font-family="Lato-Regular, Lato" font-weight="normal" fill="#4A4A4A">Allison often works long hours on tight deadlines and doesn’t have </tspan> <tspan x="237" y="389.067" font-family="Lato-Regular, Lato" font-weight="normal" fill="#4A4A4A">time to stop and cook a meal. This is especially true around lunch </tspan> <tspan x="237" y="409.067" font-family="Lato-Regular, Lato" font-weight="normal" fill="#4A4A4A">time, when she frequently goes without. She has purchased energy </tspan> <tspan x="237" y="429.067" font-family="Lato-Regular, Lato" font-weight="normal" fill="#4A4A4A">bars in the past, but she is vegan and the few options that she has </tspan> <tspan x="237" y="449.067" font-family="Lato-Regular, Lato" font-weight="normal" fill="#4A4A4A">found are too sweet and give her the feeling that she has just eaten </tspan> <tspan x="237" y="469.067" font-family="Lato-Regular, Lato" font-weight="normal" fill="#4A4A4A">dessert rather than consumed a meal.</tspan>  <tspan x="237" y="521.067" fill="#4A4A4A">GOALS</tspan>  <tspan x="237" y="547.067" font-family="Lato-Regular, Lato" font-weight="normal" fill="#4A4A4A">• Fast lunch at her desk</tspan> <tspan x="237" y="567.067" font-family="Lato-Regular, Lato" font-weight="normal" fill="#4A4A4A">• Less sweet alternative</tspan> <tspan x="237" y="587.067" font-family="Lato-Regular, Lato" font-weight="normal" fill="#4A4A4A">• Nutrition that lasts until dinner</tspan>  <tspan x="237" y="639.067" fill="#4A4A4A">FRUSTRATIONS</tspan>  <tspan x="237" y="665.067" font-family="Lato-Regular, Lato" font-weight="normal" fill="#4A4A4A">• Not enough time to eat lunch</tspan> <tspan x="237" y="685.067" font-family="Lato-Regular, Lato" font-weight="normal" fill="#4A4A4A">• No savory options</tspan> <tspan x="237" y="705.067" font-family="Lato-Regular, Lato" font-weight="normal" fill="#4A4A4A">• No vegan alternatives</tspan></text><text font-family="Lato-Black, Lato" font-size="12" font-weight="700" transform="translate(1015 -3)"><tspan x="237" y="242.095" fill="#4A4A4A">AGE</tspan> <tspan x="261.168" y="242.095" font-family="Lato-Regular, Lato" font-weight="normal" fill="#4A4A4A"> 32</tspan> <tspan x="237" y="262.095" fill="#4A4A4A">OCCUPATION</tspan> <tspan x="317.28" y="262.095" font-family="Lato-Regular, Lato" font-weight="normal" fill="#4A4A4A"> Designer</tspan> <tspan x="237" y="282.095" fill="#4A4A4A">LOCATION</tspan> <tspan x="299.256" y="282.095" font-family="Lato-Regular, Lato" font-weight="normal" fill="#4A4A4A"> Chicago, IL</tspan> <tspan x="237" y="302.095" fill="#4A4A4A">GENDER</tspan> <tspan x="285.06" y="302.095" font-family="Lato-Regular, Lato" font-weight="normal" fill="#4A4A4A"> Female</tspan></text><text font-family="Lato-Regular, Lato" font-size="12" transform="translate(1015 -3)"><tspan x="237" y="133.466" fill="#4A4A4A">Allison runs her own </tspan> <tspan x="345.912" y="133.466" font-family="Lato-Black, Lato" font-weight="700" fill="#4A4A4A">freelance design</tspan> <tspan x="435.216" y="133.466" fill="#4A4A4A"> business. On her rare days off </tspan> <tspan x="237" y="153.466" fill="#4A4A4A">she rides her bike along the lake shore or goes paddle-boarding in a </tspan> <tspan x="237" y="173.466" fill="#4A4A4A">nearby state park. She spends every other Sunday with a ten-year-</tspan> <tspan x="237" y="193.466" fill="#4A4A4A">old that she mentors through Big Brothers/Big Sisters.</tspan></text><g><path fill="#D8D8D8" d="M1015 227.095h200v164.918h-200z"/><path fill="#D8D8D8" d="M1178.998 210.4l12.163 17.792-23.696.413"/><text font-family="Lato-LightItalic, Lato" font-size="18" font-style="italic" font-weight="300" fill="#4A4A4A" transform="translate(1015 210.307)"><tspan x="25.327" y="46.741">“I don’t have much of </tspan> <tspan x="23.523" y="68.741">a sweet tooth. I’d love </tspan> <tspan x="29.076" y="90.741">it if there were more </tspan> <tspan x="36.496" y="112.741">savory options for </tspan> <tspan x="54.51" y="134.741">energy bars.”</tspan></text></g></g><g mask="url(#b)"><path stroke="#D8D8D8" stroke-width="9" fill="#FFF" d="M395.713-17.46l607.44-74.583 95.316 776.295-607.44 74.584z"/><path fill="#D8D8D8" d="M395.713-17.46l607.44-74.583 13.96 113.7-607.44 74.584z"/><g transform="rotate(-7 73.64 -3868.408)"><mask id="j" fill="#fff"><use xlink:href="#i"/></mask><path d="M108.29 63.56c.778-2.31-.39-10-3.897-22.694-3.504-12.695-7.79-24.23-30.382-35-22.59-10.77-37.783-5.76-56.09 7.318C-.388 26.264 1.948 61.67 1.948 61.67S.47 66.68.47 71.68s5.07 19.644 8.97 22.726c3.407 2.69 3.902 1.156 5.852 3.466 4.09 4.847-.91 18.607-.91 18.607l2.966 9.86s-.616 0 3.69 7.898c4.31 7.9 12.308 23.09 12.308 23.09s11.69 10.938 14.15 16.71c2.463 5.774.925 6.38-2.152 9.42-3.076 3.037-1.538 7.595-1.538 7.595l4.306 3.34 13.537 14.28 5.23 7.597c7.076-8.508 10.152-30.99 10.152-30.99l-1.538-6.076 2.77-2.128-4.308-9.722c1.23-1.52 4.307-13.974 4.307-13.974s2.153-.305 2.768.607c.616.91 2.22.315 2.22.315l-.28-.35 2.217-1.428h.51c1.17 0 1.947-1.21 2.337-3.132.39-1.924 0-.44 3.116-1.594 3.117-1.154 0 0-.39-1.54-.39-1.537 1.17-.768 2.727-3.076 1.56-2.31 0 0 0-1.54 0-1.537 1.17-1.922 1.17-1.922s1.558-1.54 1.168-3.462c-.39-1.923 0-1.923 1.947-5 1.948-3.077 0 0 0-1.925 0-1.923-1.17-2.307 1.17-3.077 2.336-.768 2.336-1.538 1.947-2.692-.39-1.153.388-1.924 1.946-3.462 1.558-1.54.78-1.923 1.948-5.77 1.168-3.846.39-11.54.39-11.54 3.186-5.35 1.68-11.986 1.026-14.224 0 0 .28-6.33-.925-10.496-1.206-4.166-.602-6.548.905-8.928 1.506-2.38 2.11-5.585 2.11-5.585" fill="#6E92C7" mask="url(#j)"/></g><path d="M499.134 65.325s1.134-2.232-1.826-3.27c-2.465-.86-4.154-1.818-5.21-4.015-1.055-2.2-1.866-5.594-1.232-6.836.946-1.854 3.777-1.24 5.127.147 1.35 1.388 1.98 1.31 1.58 4.464-.4 3.154-.058 2.725 1.772 4.828 1.83 2.104.563 4.588-.21 4.683M493.94 44.23s-.517-4.206-3.614-3.826c-3.097.38-5.033.618-6.64 3.532-1.608 2.914-.61 7.837.88 10.37 1.49 2.535-.15-2.926.458-5.877.492-2.39 3.166-6.21 5.678-4.967 2.51 1.245 3.237.767 3.237.767" fill="#37537A"/><path d="M580.867 39.753c.383-3.144 2.843-8.625 6.35-9.725 3.508-1.1 9.71-.063 12.256 7.156 2.59 7.34-.756 22.04-11.622 17.18 0 0-6.807-5.69-7.053-12.856l.07-1.755z" stroke="#37537A" stroke-width="2.088"/><path d="M571.643 41.013c3.476-1.41 6.84-1.488 9.224-1.26l-.07 1.755c-3.88-.433-7.336.642-9.184 1.222l.03-1.717z" fill="#37537A"/><path d="M571.643 41.013c3.476-1.41 6.84-1.488 9.224-1.26l-.07 1.755c-3.88-.433-7.336.642-9.184 1.222l.03-1.717z" stroke="#37537A"/><path d="M549.804 34.818s18.868-15.48 21.84 6.195l-.03 1.717c-.82 23.532-26.433 8.858-22.43-5.387l.62-2.525z" stroke="#37537A" stroke-width="2.088"/><path d="M549.185 37.342s-43.556-3.834-45.01-3.044c-3.285 1.016-6.995 3.613-6.995 3.613s-4.84-1.547 6.432-5.686l46.192 2.594-.62 2.524z" fill="#37537A"/><path d="M549.185 37.342s-43.556-3.834-45.01-3.044c-3.285 1.016-6.995 3.613-6.995 3.613s-4.84-1.547 6.432-5.686l46.192 2.594-.62 2.524z" stroke="#37537A"/><path d="M547.707 95.99l.85-3.166 1.157-3.204s.47-3.73.36-4.636c-.11-.903.436-4.004.436-4.004s2.516.29 2.71-.654c.195-.94 1.958-1.733 1.958-1.733l2.644-1.207 1.355-.166 1.873 1.213 2.71-.64 2.178.055 2.518.318 1.376-.17 2.7.558 2.86.567 2.53.412 2.03 1.394 2.87-.352s-.12 2.547 1.027 1.795c1.148-.755 2.37-.905 2.37-.905l-.085 1.847s.37 3.015-.814 3.467c-1.183.45-2.025 1.167-1.61 2.033.417.867-1.23 2.6-1.23 2.6l-2.525 2.146-1.647 1.732-2.85-.475-2.54-.514-3.148.387-2.556 1.14s-2.542-.514-3.458-.402l-.227.028s-2.933 2.01-1.444 1.522c1.49-.49 2.934 1.17 2.934 1.17l1.98.982s.977 1.773 1.53 2.136c.184.122.323.085.362-.226.158-1.243 1.485-1.406 1.485-1.406l.402 3.275-.022 1.574-4.008.186-.795-1.433-2.906 1.582-1.48-1.963-1.492.49-3.007-1.773-3.163-.53s-2.637 1.242-2.555-.605c.083-1.85-.102-3.356-.102-3.356l-1.758.828-1.785-1.923zM504.13 56.65c.223 1.81 1.13 4.146 1.13 4.146l1.36 3.506.666 3.79-.203 4.21.546 2.333s-.094 1.975.018 2.88c.11.905 1.096 1.46 1.512 2.328.418.867-.62 2.557-.168 3.725.454 1.17 1.006 5.947 1.006 5.947l.528 4.304s.616 2.373 1.91 2.827c1.297.453 1.91 1.6 1.91 1.6l.95 2.028 2.86.26 2.687 1.507s.77 1.13 2.26.64c1.488-.488 2.252.643 3.205.832.953.19.525 2.705.525 2.705l3.174-.39s1.924.52 2.645 1.35c.723.83 1.546 2.485 2.73 2.034 1.185-.45 1.44 1.62 1.855 2.487.417.868.87 2.018 1.784 1.905.917-.112 1.906.367 1.906.367s1.063 1.09 2.016 1.278c.954.19 1.443 1.657 1.443 1.657s1.676 1.018 3.128.227c1.454-.79.685.528 1.407 1.358.72.83 1.712 1.32 2.895.868 1.185-.452 2.25.642 3.24 1.132.99.49 2.017 1.283 2.896.87.88-.415 3.046 2.075 3.046 2.075l2.285.944 2.37-.902 2.712-.64s2.1-.563 2.82.266c.723.83 2.243.042 2.243.042l-.32-.313 2.025-1.687.506-.062c1.16-.143 1.785-1.438 1.938-3.394.152-1.957-.054-.436 2.898-1.962s0 0-.573-1.48c-.576-1.48 1.064-.906 2.33-3.386 1.265-2.482 0 0-.188-1.528-.188-1.526.926-2.05.926-2.05s1.36-1.718.738-3.58c-.62-1.86-.234-1.908 1.323-5.2 1.558-3.292 0 0-.235-1.91s-1.442-2.147.785-3.197c2.226-1.047 2.132-1.81 1.604-2.91-.526-1.097.153-1.955 1.512-3.673 1.36-1.717.54-2.003 1.23-5.964.69-3.96-1.02-11.5-1.02-11.5l-1.596 5.86s-3.303-4.187-4.33-4.98c-1.028-.792-1 1.96-1 1.96l-2.174-.038-1.413 3.64-1.84-4.878-1.236.152-.822 3.268-3.425-2.64-2.1.562-1.37-1.055s-2.516-.302-2.71.64c-.196.94-1.047 4.108-1.047 4.108l-3.432-.19-4.348-.08-4.692-.34-5.97 4.405-2.848-3.017s-1.323-3.206-2.165-2.49c-.843.716-1.37-1.056-1.787-1.923-.417-.867-1.138-1.697-2.017-1.283-.88.415-2.443.3-2.443.3l-2.017-1.282s-1.444-1.66-2.323-1.246c-.88.414-1.75-1.622-1.75-1.622s.926-2.562-.564-2.073c-1.49.488-2.702-1.81-2.702-1.81l-1.86-2.528-2.554-.606s-.527-1.772-1.48-1.96c-.953-.19-2.322-1.245-2.322-1.245l-2.97-1.473-.85-3.57-1.424-3.19-.384-3.128-.925-1.612s-.453-1.168-1.175-1.998c-.72-.83-2.063.866-2.063.866l-2.33 1.204.174 3.958s-.73 1.62-.62 2.525c.112.905.566 2.073.067 3.053-.502.98-.16 1.243.063 3.053z" fill="#37537A"/><path d="M483.437 121.53s10.83-23.234 12.944-25.24c1.407-1.335 4.08-2.292 4.08-2.292l-4.537 4.376-9.21 21.005 3.193 5.48 3.32 4.95c1.895 2.826 8.848 13.19 13.025 17.777 4.18 4.586 13.737 15.14 13.737 15.14-2.606-.19-14.32-11.5-19.377-19.036-2.753-4.102-6.375-10.352-9.11-15.207l-8.063-6.954z" fill="#AABFDE"/><path d="M441.36 149.175s8.95-13.28 15.39-14.16c6.44-.878 28.756-4.366 33.156-10.154l-2.806-.172s-6.542 3.187-14.86 5.203c-8.315 2.017-22.67 4.082-26.087 9.076-3.417 4.994-4.792 10.21-4.792 10.21" fill="#AABFDE"/><text font-family="Lato-Black, Lato" font-size="64" font-weight="700" transform="rotate(-7 55.13 -3243.657)"><tspan x="237" y="113.872" fill="#4A4A4A">JULIAN</tspan></text><text font-family="Lato-Black, Lato" font-size="12" font-weight="700" transform="rotate(-7 55.13 -3243.657)"><tspan x="237" y="343.067" fill="#4A4A4A">MOTIVATIONS</tspan>  <tspan x="237" y="369.067" font-family="Lato-Regular, Lato" font-weight="normal" fill="#4A4A4A">Julian works long hours and frequently skips lunch and sometimes </tspan> <tspan x="237" y="389.067" font-family="Lato-Regular, Lato" font-weight="normal" fill="#4A4A4A">dinner when he works late. His office supplies the break room with </tspan> <tspan x="237" y="409.067" font-family="Lato-Regular, Lato" font-weight="normal" fill="#4A4A4A">energy and fitness bars, but Julian doesn’t eat them because he </tspan> <tspan x="237" y="429.067" font-family="Lato-Regular, Lato" font-weight="normal" fill="#4A4A4A">thinks they all taste like protein powder. He would be more inclined </tspan> <tspan x="237" y="449.067" font-family="Lato-Regular, Lato" font-weight="normal" fill="#4A4A4A">to try an energy bar if it promised good flavor and sustenance. </tspan>  <tspan x="237" y="501.067" fill="#4A4A4A">GOALS</tspan>  <tspan x="237" y="527.067" font-family="Lato-Regular, Lato" font-weight="normal" fill="#4A4A4A">• A meal he can easily eat as his desk</tspan> <tspan x="237" y="547.067" font-family="Lato-Regular, Lato" font-weight="normal" fill="#4A4A4A">• An energy bar with flavor</tspan> <tspan x="237" y="567.067" font-family="Lato-Regular, Lato" font-weight="normal" fill="#4A4A4A">• An energy bar that makes him feel full</tspan>  <tspan x="237" y="619.067" fill="#4A4A4A">FRUSTRATIONS</tspan>  <tspan x="237" y="645.067" font-family="Lato-Regular, Lato" font-weight="normal" fill="#4A4A4A">• Not enough time to eat lunch/dinner</tspan> <tspan x="237" y="665.067" font-family="Lato-Regular, Lato" font-weight="normal" fill="#4A4A4A">• Energy bars that taste powdery and bad</tspan> <tspan x="237" y="685.067" font-family="Lato-Regular, Lato" font-weight="normal" fill="#4A4A4A">• Energy bars that only target athletic types</tspan></text><text font-family="Lato-Black, Lato" font-size="12" font-weight="700" transform="rotate(-7 55.13 -3243.657)"><tspan x="237" y="242.095" fill="#4A4A4A">AGE</tspan> <tspan x="261.168" y="242.095" font-family="Lato-Regular, Lato" font-weight="normal" fill="#4A4A4A"> 23</tspan> <tspan x="237" y="262.095" fill="#4A4A4A">OCCUPATION</tspan> <tspan x="317.28" y="262.095" font-family="Lato-Regular, Lato" font-weight="normal" fill="#4A4A4A"> Developer</tspan> <tspan x="237" y="282.095" fill="#4A4A4A">LOCATION</tspan> <tspan x="299.256" y="282.095" font-family="Lato-Regular, Lato" font-weight="normal" fill="#4A4A4A"> Raleigh, NC</tspan> <tspan x="237" y="302.095" fill="#4A4A4A">GENDER</tspan> <tspan x="285.06" y="302.095" font-family="Lato-Regular, Lato" font-weight="normal" fill="#4A4A4A"> Male</tspan></text><text font-family="Lato-Regular, Lato" font-size="12" transform="rotate(-7 55.13 -3243.657)"><tspan x="237" y="133.466" fill="#4A4A4A">Julian moved from the Midwest to the Research Triangle last year </tspan> <tspan x="237" y="153.466" fill="#4A4A4A">for a job as a </tspan> <tspan x="304.02" y="153.466" font-family="Lato-Black, Lato" font-weight="700" fill="#4A4A4A">junior developer</tspan> <tspan x="394.44" y="153.466" fill="#4A4A4A">. He loves exploring his new city and </tspan> <tspan x="237" y="173.466" fill="#4A4A4A">sampling southern cooking. On weekends he tries to get out and </tspan> <tspan x="237" y="193.466" fill="#4A4A4A">hike parts of the Appalachian Trail.</tspan></text><g><path fill="#D8D8D8" d="M423.755 210.92l198.51-24.373 20.097 163.688-198.51 24.374z"/><path fill="#D8D8D8" d="M584.496 174.365l14.24 16.176-23.47 3.3"/><text font-family="Lato-LightItalic, Lato" font-size="18" font-style="italic" font-weight="300" fill="#4A4A4A" transform="rotate(-7 1798.898 -3350.31)"><tspan x="38.71" y="46.741">“I rarely consume </tspan> <tspan x="28.32" y="68.741">energy bars because </tspan> <tspan x="35.794" y="90.741">even though I love </tspan> <tspan x="35.749" y="112.741">getting outdoors, I </tspan> <tspan x="27.856" y="134.741">don’t see myself as a </tspan> <tspan x="52.718" y="156.741">fitness freak.” </tspan></text></g></g></g></svg>