<?xml version="1.0" encoding="UTF-8"?>
<svg width="127px" height="294px" viewBox="0 0 127 294" version="1.1" xmlns="http://www.w3.org/2000/svg" xmlns:xlink="http://www.w3.org/1999/xlink">
    <!-- Generator: Sketch 46.1 (44463) - http://www.bohemiancoding.com/sketch -->
    <title>Page 1</title>
    <desc>Created with Sketch.</desc>
    <defs>
        <polygon id="path-1" points="0.669 57 105.570845 57 105.570845 0.8247 0.669 0.8247"></polygon>
        <polygon id="path-3" points="0.9664 16 33.0884 16 33.0884 0.5953 0.9664 0.5953"></polygon>
        <polygon id="path-5" points="3.276 10.1811 3.276 0.6031 0.1233 0.6031 0.1233 10.1811 3.276 10.1811"></polygon>
    </defs>
    <g id="portfolio" stroke="none" stroke-width="1" fill="none" fill-rule="evenodd">
        <g id="cs-spacebar" transform="translate(-120.000000, -1976.000000)">
            <g id="research" transform="translate(0.000000, 1112.000000)">
                <g id="Group-7" transform="translate(0.000000, 796.000000)">
                    <g id="Page-1" transform="translate(120.000000, 68.000000)">
                        <g id="Group-7" transform="translate(0.000000, 23.000000)" fill="#E9A79E">
                            <path d="M4.0631,223.3475 C6.3531,220.4215 8.1331,217.4955 8.1331,217.4955 L10.5511,213.5525 C10.5511,213.5525 12.8401,203.5025 14.4951,202.2305 C14.4951,202.2305 13.3491,199.5585 14.2401,198.1595 C15.1301,196.7605 15.3851,188.4915 15.7661,188.2365 C16.1481,187.9825 17.5471,184.4205 17.5471,184.4205 L19.3291,175.8975 L19.0741,170.5545 L7.2441,169.6635 L5.2011,169.8785 C5.2011,169.8785 4.2791,187.7775 3.5111,193.4625 C2.7431,199.1475 1.7451,208.9035 1.0531,212.2845 C0.3621,215.6645 -0.1759,217.5075 0.0541,221.0415 C0.2851,224.5755 1.0531,229.8765 1.0531,229.8765 C1.0531,229.8765 1.7731,226.2735 4.0631,223.3475" id="Fill-1"></path>
                            <path d="M25.4351,77.4349 C25.3071,84.1769 26.8341,92.8279 33.3221,98.0429 C33.3221,98.0429 44.7711,101.8599 54.9481,100.3329 C65.1251,98.8069 69.8311,100.4599 84.2061,91.5559 C84.2061,91.5559 89.8041,85.5769 91.3311,83.6679 C92.7521,81.8909 97.6191,74.0039 97.6191,74.0039 C97.6191,74.0039 73.4981,66.7889 73.6501,42.7369 L73.3871,36.6599 C73.3871,36.6599 76.8161,37.2019 77.5391,35.3969 C78.2601,33.5919 78.3501,31.6969 78.9821,30.6139 C79.6141,29.5319 80.6971,25.8319 79.6141,24.1169 C78.5311,22.4029 78.1691,23.0349 77.0871,22.7639 C76.0041,22.4929 75.7341,22.3119 74.9211,22.9439 C74.1091,23.5759 73.6581,23.6659 73.3871,23.4859 C73.1171,23.3049 72.6651,23.3949 71.8531,23.8469 C71.0411,24.2979 70.2291,23.1249 70.0481,22.3119 C69.8681,21.4999 67.8831,21.4099 67.6121,20.4169 C67.3411,19.4249 67.2511,18.4329 66.3491,18.2519 C65.4471,18.0719 64.5441,18.3419 63.4611,17.2589 C62.3781,16.1769 60.6641,15.2739 61.0251,16.4469 C61.3861,17.6209 60.9351,17.3499 60.1231,18.1619 C59.3101,18.9739 57.7231,19.6319 58.9871,20.5339 C60.2491,21.4359 63.2251,21.5049 61.5661,22.7639 C59.8601,24.0579 61.2991,22.1839 60.6641,22.1229 C58.8101,21.9469 57.5051,20.0569 57.1451,19.4249 C56.7841,18.7929 55.7911,16.7179 56.4231,15.9959 C57.0541,15.2739 56.9641,13.8309 56.1521,12.5669 C55.3401,11.3039 53.8061,9.8599 54.9791,9.2279 C56.1521,8.5969 57.5961,7.3329 56.4231,6.8819 C55.2491,6.4309 54.6191,5.7089 53.5361,6.7919 C52.4531,7.8749 49.5651,7.7849 50.5571,9.6799 C51.5501,11.5749 52.5421,13.2889 51.0991,14.1909 C49.6551,15.0939 49.0241,14.8229 47.9411,15.1839 C46.8581,15.5449 47.4901,16.7179 45.1431,16.3569 C42.7971,15.9959 41.9661,16.1669 43.1581,16.8079 C44.5041,17.5319 44.8691,18.1529 43.6101,18.7929 C41.2971,19.9689 42.9321,19.3649 42.8871,18.0719 C42.8471,16.8989 41.5341,16.8979 41.2631,15.8149 C40.9931,14.7329 41.8951,15.1839 42.6171,14.1009 C43.3381,13.0189 43.7891,11.8449 42.0761,11.7549 C40.3611,11.6649 40.3611,11.1229 42.3461,10.1309 C44.3311,9.1379 44.8721,10.1309 46.0451,10.0399 C47.2191,9.9499 46.4071,9.5889 47.0391,8.0549 C47.6701,6.5209 49.2041,5.7989 49.1141,5.0779 C49.0241,4.3549 48.7741,4.4419 47.3301,5.3449 C45.8861,6.2469 44.6801,4.2849 46.1821,4.9029 C47.0691,5.2689 48.5731,3.0919 46.9481,2.7309 C45.3241,2.3709 42.9781,1.6479 42.0761,0.7459 C41.1731,-0.1561 36.6621,0.2949 36.3901,1.2879 C36.1201,2.2799 36.2101,2.5509 34.9471,3.9039 C33.6831,5.2579 32.9611,6.4309 32.5101,7.6939 C32.0591,8.9569 31.0671,11.2139 30.6161,12.2959 C30.1641,13.3789 29.8931,13.9209 30.6161,14.9129 C31.3371,15.9059 30.7951,17.4399 31.2471,18.5229 C31.6991,19.6049 31.9691,19.7859 31.6081,20.6879 C31.2471,21.5909 30.4351,21.8609 31.0671,22.9439 C31.6991,24.0269 32.5101,24.8389 32.4201,26.4629 C32.3301,28.0879 31.9691,31.6069 32.8721,33.8629 C33.7741,36.1189 36.1611,42.6609 36.1611,42.6609 C36.2381,42.9679 43.8431,56.8729 47.2991,58.6399 C47.2991,58.6399 47.2991,63.9399 40.6171,66.9359 C33.9331,69.9329 31.4741,70.9309 31.4741,70.9309 L29.5281,71.2329 C27.7921,71.7739 25.5131,73.2749 25.4351,77.4349" id="Fill-3"></path>
                            <path d="M109.522,172.9715 C107.232,173.7345 103.457,173.9495 103.457,173.9495 C105.229,206.5535 103.507,211.6095 102.846,212.3805 C102.847,212.3785 102.848,212.3785 102.849,212.3775 L102.017,214.8245 C102.017,214.8245 99.727,220.1675 97.692,220.5485 L94.638,220.2945 L100.49,237.4685 C100.49,237.4685 102.78,245.4825 102.526,248.0265 L105.455,242.1685 C105.455,242.1685 108.22,233.2565 109.603,231.2595 C110.986,229.2615 113.06,226.5735 113.444,224.9595 C113.828,223.3465 113.674,218.8905 113.905,216.8165 C114.135,214.7425 117.746,207.4445 119.744,199.3015 C121.741,191.1585 123.124,173.1815 123.124,173.1815 C123.124,173.1815 120.081,172.0805 117.028,171.6995 C113.975,171.3175 111.812,172.2075 109.522,172.9715" id="Fill-5"></path>
                        </g>
                        <g id="Group-12" transform="translate(8.000000, 47.000000)" fill="#A23324">
                            <path d="M7.9469,146.3187 L11.0739,146.5547 L11.3289,151.8977 L9.5479,160.4207 C9.5479,160.4207 8.1479,163.9827 7.7659,164.2367 C7.3849,164.4917 7.1309,172.7597 6.2399,174.1597 C5.3489,175.5587 6.4949,178.2307 6.4949,178.2307 C4.8409,179.5027 2.5509,189.5517 2.5509,189.5517 L0.1339,193.4957 L2.7689,172.9237 L6.8459,155.3387 L7.9469,146.3187 Z" id="Fill-8"></path>
                            <path d="M66.7164,7.3094 L67.8744,5.8034 C67.8744,5.8034 69.4394,5.2824 69.5544,5.1084 C69.6704,4.9344 69.3804,0.5324 67.4694,0.4164 L66.7164,2.5014 C66.7164,2.5014 67.1214,3.6604 67.0054,4.5874 C66.8904,5.5144 66.2524,7.0774 66.2524,7.0774 L66.7164,7.3094 Z" id="Fill-10"></path>
                        </g>
                        <g id="Group-21" transform="translate(25.000000, 58.000000)" fill="#F1C4BE">
                            <path d="M52.5387,0.3968 C51.8157,2.2018 48.3877,1.6598 48.3877,1.6598 L48.6497,7.7368 C48.6497,7.7368 42.2187,20.5578 33.7227,23.3648 C33.7227,23.3648 41.9967,18.1198 44.3607,12.2098 C46.7257,6.2988 46.2817,0.7578 46.2817,0.7578 C46.2817,0.7578 46.2997,1.1268 48.7197,1.1268 C50.7887,1.1268 52.5387,0.3968 52.5387,0.3968" id="Fill-13"></path>
                            <path d="M70.3736,42.5926 C71.6076,40.6416 72.6186,39.0036 72.6186,39.0036 C72.6186,39.0036 51.0836,41.3176 51.5266,41.2436 C51.9706,41.1696 70.3736,42.5926 70.3736,42.5926" id="Fill-15"></path>
                            <path d="M0.8638,39.7869 C1.6188,37.5849 3.2258,36.6389 4.5278,36.2329 C4.5278,36.2329 17.4678,37.1059 19.0938,39.5439 C19.0938,39.5439 14.0698,38.2149 9.7858,38.6579 C5.5008,39.1009 0.8638,39.7869 0.8638,39.7869" id="Fill-17"></path>
                            <path d="M77.6051,178.0946 C77.6051,178.0946 77.8471,177.3786 77.8461,177.3806 C78.5071,176.6096 80.2291,171.5526 78.4571,138.9496 C78.4571,138.9496 82.2321,138.7346 84.5221,137.9716 L83.1241,148.1616 L80.5751,172.1176 L77.6051,178.0946 Z" id="Fill-19"></path>
                        </g>
                        <g id="Group-24" transform="translate(0.000000, 237.000000)">
                            <mask id="mask-2" fill="white">
                                <use xlink:href="#path-1"></use>
                            </mask>
                            <g id="Clip-23"></g>
                            <path d="M102.526,34.0267 C102.78,31.4827 100.49,23.4677 100.49,23.4677 L94.638,6.2947 L97.692,6.5487 C99.727,6.1677 102.017,0.8247 102.017,0.8247 C102.017,0.8247 97.182,1.8417 93.876,2.2237 C90.568,2.6057 86.752,5.1497 75.429,8.2027 C64.107,11.2557 49.732,11.6377 36.121,11.5097 C22.509,11.3827 8.133,3.4957 8.133,3.4957 C8.133,3.4957 6.353,6.4217 4.063,9.3477 C1.773,12.2737 1.053,15.8767 1.053,15.8767 L0.669,19.8707 L2.129,26.8617 C2.129,26.8617 3.05,28.7827 4.664,32.0867 C6.277,35.3887 6.2,38.3077 6.968,39.9987 C7.736,41.6887 8.274,41.6117 8.582,44.2237 C8.888,46.8357 9.273,47.6807 9.349,49.9857 C9.426,52.2907 9.315,57.0007 9.315,57.0007 L101.441,57.0007 C101.441,57.0007 102.365,53.2827 102.954,51.3487 C102.954,51.3487 106.219,36.5787 105.455,28.1687 L102.526,34.0267 Z" id="Fill-22" fill="#B63A29" mask="url(#mask-2)"></path>
                        </g>
                        <g id="Group-32" transform="translate(38.000000, 237.000000)">
                            <g id="Group-27" transform="translate(6.000000, 41.000000)">
                                <mask id="mask-4" fill="white">
                                    <use xlink:href="#path-3"></use>
                                </mask>
                                <g id="Clip-26"></g>
                                <path d="M2.6304,16.0003 L5.5734,16.0003 L4.6774,7.1213 C4.6774,7.1213 12.9964,2.7713 20.1624,4.9453 C27.3294,7.1213 33.0884,8.6573 33.0884,8.6573 L17.8594,2.6433 L3.1424,3.7943 L0.9664,0.5953 L2.6304,16.0003 Z" id="Fill-25" fill="#A23324" mask="url(#mask-4)"></path>
                            </g>
                            <path d="M4.2789,31.8685 L5.3019,31.8685 L4.4069,22.2695 L4.1499,11.5265 C2.9109,11.5325 1.6739,11.5325 0.4399,11.5265 L4.2789,31.8685 Z" id="Fill-28" fill="#A23324"></path>
                            <path d="M57.442,6.3612 L59.692,6.5482 C61.727,6.1672 64.017,0.8242 64.017,0.8242 C64.017,0.8242 59.182,1.8422 55.876,2.2232 L57.442,6.3612 Z" id="Fill-30" fill="#A23324"></path>
                        </g>
                        <path d="M14.4947,225.2303 C14.4947,225.2303 16.1477,227.7743 19.7107,229.8103 C23.2717,231.8453 33.7037,233.7533 33.7037,233.7533 C37.5197,236.1703 44.2627,234.3893 47.6967,233.4993 C51.1317,232.6083 72.3897,228.5993 75.0477,228.1563 C79.6277,227.3933 91.9677,224.8483 91.9677,224.8483 L99.3857,220.5343 C99.3857,220.5343 99.6157,219.3813 100.4607,218.4593 C101.3067,217.5383 102.3817,216.5393 101.6127,215.0023 C100.8457,213.4663 100.9217,212.9283 101.1517,211.6233 C101.3827,210.3163 101.4597,209.5483 100.9987,208.2423 C100.5377,206.9363 97.6187,204.4013 96.1587,202.6343 C94.6987,200.8673 95.3907,201.4053 95.4677,199.4843 C95.5447,197.5643 96.0057,196.1813 94.7757,193.8003 C93.5467,191.4183 92.2407,191.9563 92.2407,191.9563 C92.2407,191.9563 95.7247,182.1743 98.2327,172.7513 C100.5057,164.2133 99.5387,164.5303 99.5387,164.5303 L100.2297,165.1453 C100.2297,165.1453 99.9997,168.2943 100.9217,170.2153 C101.8437,172.1363 102.1507,184.2733 101.3827,186.2713 C100.6147,188.2693 101.7667,187.3473 102.5347,188.4993 C103.3037,189.6513 101.7667,189.4213 101.5367,190.8803 C101.3067,192.3403 102.3047,192.2633 102.3047,192.2633 L102.3817,196.2583 L103.4567,196.9493 C103.4567,196.9493 107.2317,196.7343 109.5217,195.9713 C111.8117,195.2083 113.9747,194.3173 117.0277,194.6993 C120.0807,195.0813 123.1237,196.1813 123.1237,196.1813 L124.2757,196.0273 C124.2757,196.0273 125.1207,194.6453 125.0437,193.5693 C124.9677,192.4943 124.8907,191.8793 124.8907,191.8793 C124.8907,191.8793 126.3497,188.6523 126.2727,187.6543 C126.1957,186.6553 124.4297,182.4303 124.4297,182.4303 C124.4297,182.4303 123.6617,172.8273 124.2757,157.3093 C124.8907,141.7913 118.6677,105.7613 114.2887,103.6873 C109.9097,101.6133 101.9207,97.6953 101.9207,97.6953 L99.3857,96.3893 L97.6187,97.0033 C97.6187,97.0033 92.7527,104.8913 91.3307,106.6683 C89.8047,108.5763 84.2067,114.5553 84.2067,114.5553 C84.2067,114.5553 78.1007,121.1703 61.9447,126.6403 C56.2657,128.5633 50.4957,128.9303 50.4957,128.9303 L48.0787,127.9123 L47.1877,129.1853 C41.0817,127.4033 33.3217,121.0433 33.3217,121.0433 C26.8347,115.8273 25.3077,107.1773 25.4347,100.4353 C25.5617,93.6923 31.4737,93.9313 31.4737,93.9313 L23.5617,95.1603 C23.5617,95.1603 15.2347,96.5243 10.7317,102.9963 C8.2737,106.5293 6.8907,116.0563 6.6607,128.1173 C6.6607,128.1173 8.4277,159.7673 8.5047,160.6893 C8.5817,161.6113 7.4297,169.4473 7.3517,170.7533 C7.2747,172.0593 6.3527,176.9763 6.7377,177.8973 C7.1217,178.8193 7.5827,179.6653 6.8137,180.5093 C6.0467,181.3553 5.9697,181.7383 5.7387,183.0443 C5.5087,184.3513 5.2777,187.1933 5.8157,188.1153 C6.3527,189.0373 6.0467,189.6513 5.6617,190.3433 C5.2777,191.0343 5.2007,192.8783 5.2007,192.8783 L7.2437,192.6643 L19.0737,193.5543 L19.3287,198.8973 L17.5477,207.4203 C17.5477,207.4203 16.1477,210.9823 15.7657,211.2373 C15.3857,211.4913 15.1307,219.7603 14.2397,221.1593 C13.3487,222.5593 14.4947,225.2303 14.4947,225.2303" id="Fill-33" fill="#D4503E"></path>
                        <g id="Group-49" transform="translate(5.000000, 119.000000)" fill="#A23324">
                            <path d="M111.6842,75.66 C111.6842,75.66 116.6482,70.567 115.1412,70.718 C113.6352,70.868 102.3362,72.977 99.6242,73.128 C96.9132,73.279 101.7342,70.567 101.7342,70.567 C101.7342,70.567 109.4162,68.76 113.7862,69.061 C118.1542,69.362 118.4552,66.801 118.4552,66.801 C118.4552,66.801 104.4462,68.157 103.9942,68.458 C103.5412,68.76 100.6792,68.006 100.6792,68.006 L102.6372,64.692 L101.1312,56.256 L102.0352,39.835 L96.6122,46.162 L102.4872,33.809 L95.2562,40.739 C95.2562,40.739 98.3152,26.86 98.1192,26.88 C97.9212,26.899 94.3522,37.274 94.3522,37.274 L94.0502,33.659 C94.0502,33.659 95.5232,15.14 95.2562,15.28 C94.9892,15.419 92.8452,30.345 92.8452,30.345 L91.9422,21.456 L91.1882,28.386 L94.5382,45.531 L95.2302,46.145 C95.2302,46.145 94.9992,49.295 95.9212,51.216 C96.8432,53.136 97.1512,65.274 96.3822,67.271 C95.6152,69.269 96.7672,68.347 97.5352,69.499 C98.3032,70.652 96.7672,70.421 96.5372,71.881 C96.3062,73.34 97.3042,73.264 97.3042,73.264 L97.3812,77.258 L98.4562,77.95 C98.4562,77.95 102.2322,77.735 104.5222,76.972 C106.6822,76.251 108.7292,75.418 111.5172,75.646 C111.6842,75.66 111.8552,75.678 112.0282,75.699" id="Fill-35"></path>
                            <path d="M16.317,56.1048 C16.317,56.1048 15.527,48.0348 12.099,44.6558 C1.699,34.4038 8.755,17.0328 8.755,17.0328 C8.755,17.0328 5.963,0.3498 5.772,0.3658 C5.581,0.3818 5.922,8.8018 5.922,8.8018 L4.416,5.9398 C4.416,5.9398 5.018,14.8278 5.018,15.2798 C5.018,15.7318 3.813,22.2088 3.813,22.2088 C3.813,22.2088 4.868,39.6848 5.621,45.1078 C6.375,50.5308 11.345,59.2688 11.345,59.2688 C11.345,59.2688 6.375,60.3228 4.115,59.7208 C1.855,59.1178 3.512,62.5828 3.512,62.5828 C3.512,62.5828 11.797,66.0478 11.195,66.3488 C10.592,66.6498 2.005,65.2938 1.253,65.2938 C0.499,65.2938 8.182,68.4578 10.291,69.0608 C12.4,69.6638 11.345,70.7178 10.743,70.7178 C10.14,70.7178 0.662,71.3428 0.662,71.3428 C0.278,72.0348 0.201,73.8778 0.201,73.8778 L2.244,73.6638 L13.764,74.5308 L16.317,56.1048 Z" id="Fill-37"></path>
                            <path d="M29.8756,110.0365 C29.8756,110.0365 32.1356,103.4085 31.9836,100.3955 C31.8336,97.3825 31.6836,91.5075 31.9836,88.4945 C32.2856,85.4815 33.7916,74.0325 33.7916,73.5795 C33.7916,73.1285 34.8466,64.8425 34.8466,61.5285 C34.8466,58.2145 34.5456,52.6405 34.8466,50.0785 C35.1476,47.5175 36.2026,34.4115 36.3536,33.8095 C36.5036,33.2065 41.9276,13.4725 41.9276,13.4725 L36.2026,30.4945 C36.2026,30.4945 34.2436,48.4225 34.2436,49.9285 C34.2436,51.4345 33.4906,67.5545 33.4906,67.5545 L30.6286,89.3975 L29.8756,110.0365 Z" id="Fill-39"></path>
                            <path d="M89.7623,41.8299 C89.9493,42.5749 87.9693,58.2169 75.9353,64.8749 C63.9003,71.5329 53.1463,75.8849 54.1703,74.8609 C55.1943,73.8369 72.0943,65.3869 78.2403,58.2169 C84.3853,51.0479 89.5063,40.8059 89.7623,41.8299" id="Fill-41"></path>
                            <path d="M28.8209,96.1136 C27.2839,95.8576 17.0419,96.6256 17.2979,95.8576 C17.5539,95.0896 28.5639,94.0656 28.5639,94.0656 L28.8209,96.1136 Z" id="Fill-43"></path>
                            <path d="M39.3189,91.7611 C40.0879,91.5051 59.5479,87.9201 62.3639,88.1761 C65.1799,88.4321 84.3849,85.6151 84.3849,85.6151 C84.3849,85.6151 78.7519,88.9441 73.8859,89.4561 C69.0209,89.9691 39.3189,92.7851 39.3189,92.7851 L39.3189,91.7611 Z" id="Fill-45"></path>
                            <path d="M41.8795,110.1971 C45.2085,109.9411 66.2045,106.6121 69.5335,105.8441 C72.8615,105.0761 90.7865,100.4671 89.2495,100.4671 C87.7135,100.4671 73.6305,102.7711 70.0455,103.2831 C66.4605,103.7961 41.8795,110.1971 41.8795,110.1971" id="Fill-47"></path>
                        </g>
                        <g id="Group-55" transform="translate(114.000000, 103.000000)">
                            <path d="M5.5387,23.4461 C8.2507,40.7701 7.0457,59.7521 7.0457,59.7521 L8.7027,79.7881 L10.9967,80.8291 C10.6807,80.0291 10.4297,79.4301 10.4297,79.4301 C10.4297,79.4301 9.6617,69.8271 10.2757,54.3091 C10.8907,38.7911 4.6677,2.7611 0.2887,0.6871 C0.2037,0.6471 0.1167,0.6061 0.0277,0.5641 C0.0277,0.5641 2.8267,6.1211 5.5387,23.4461" id="Fill-50" fill="#E2897D"></path>
                            <g id="Group-54" transform="translate(9.000000, 83.000000)">
                                <mask id="mask-6" fill="white">
                                    <use xlink:href="#path-5"></use>
                                </mask>
                                <g id="Clip-53"></g>
                                <path d="M0.3053,5.6761 L0.1233,10.1811 L1.2763,10.0281 C1.2763,10.0281 2.1203,8.6451 2.0433,7.5701 C1.9673,6.4941 1.8903,5.8791 1.8903,5.8791 C1.8903,5.8791 3.3503,2.6531 3.2733,1.6541 C3.2563,1.4341 3.1573,1.0571 3.0133,0.6031 L0.3053,5.6761 Z" id="Fill-52" fill="#E2897D" mask="url(#mask-6)"></path>
                            </g>
                        </g>
                        <g id="Group-68" transform="translate(33.000000, 129.000000)" fill="#A23324">
                            <path d="M2.897,102.9705 L2.431,103.0125 L2.368,103.3305 L1.987,103.3305 L2.135,102.1865 L2.538,102.1445 L2.558,102.5895 L2.94,102.6525 L2.897,102.9705 Z M3.892,103.0125 C3.765,101.7625 3.172,101.1705 2.346,101.2975 C1.521,101.4245 0.568,102.1445 0.885,103.2035 C1.203,104.2625 1.838,104.4105 2.262,104.3885 C2.685,104.3675 4.02,104.2625 3.892,103.0125 L3.892,103.0125 Z" id="Fill-56"></path>
                            <path d="M5.5035,82.783 L5.1465,82.703 L5.1865,83.14 L4.9875,83.498 L4.7885,83.26 L4.9075,82.902 L5.0265,82.306 L5.5825,82.426 L5.5035,82.783 Z M6.0995,81.711 C5.9005,81.512 5.2375,81.09 4.3125,81.751 C3.4795,82.346 3.5585,83.657 4.1135,84.212 C4.6695,84.768 5.7815,84.609 6.3765,83.974 C7.3015,82.988 6.2975,81.909 6.0995,81.711 L6.0995,81.711 Z" id="Fill-58"></path>
                            <path d="M7.4488,62.2972 C7.3298,62.3372 7.1318,62.4962 7.1318,62.4962 L6.9328,63.0122 L6.8138,62.7342 L7.1718,62.0992 L7.2108,61.6222 L7.6078,61.8602 C7.6078,61.8602 7.5678,62.2572 7.4488,62.2972 M7.8058,61.1862 C7.2898,60.8282 6.4568,61.0272 5.8608,61.7022 C5.2648,62.3772 5.7818,63.9252 6.8528,64.0842 C7.9258,64.2432 8.4018,63.1312 8.4018,63.1312 C8.6788,62.2972 8.5958,61.7332 7.8058,61.1862" id="Fill-60"></path>
                            <path d="M8.8385,42.9632 L8.7595,43.4002 L8.5605,43.0422 L9.0365,42.4862 L8.8385,42.9632 Z M8.3615,41.4152 C7.5675,41.7322 7.1315,42.7642 7.3295,43.4792 C7.5275,44.1932 8.1225,44.5242 8.6405,44.5512 C9.3945,44.5902 10.3865,43.9162 10.2675,42.8442 C10.1245,41.5592 9.1555,41.0972 8.3615,41.4152 L8.3615,41.4152 Z" id="Fill-62"></path>
                            <path d="M10.2672,21.0877 L9.9502,20.9687 L9.9502,20.0957 L10.4662,19.9367 L10.2672,21.0877 Z M9.3992,19.0657 C8.5942,19.5527 8.4272,20.8687 8.8272,21.4167 C9.1962,21.9217 9.6722,22.2387 10.4262,22.0407 C10.9102,21.9137 11.7372,21.5647 11.7282,20.5057 C11.7172,19.1077 10.2042,18.5787 9.3992,19.0657 L9.3992,19.0657 Z" id="Fill-64"></path>
                            <path d="M15.9449,1.7537 L15.5879,1.8327 L15.1909,2.1907 L14.9529,1.8727 L15.4279,1.5947 L15.9849,1.4357 L15.9449,1.7537 Z M16.5559,0.8317 C16.5559,0.8317 15.7099,0.0267 14.7989,0.4297 C13.8879,0.8317 14.4809,2.1877 14.4809,2.1877 L14.7989,2.5677 C14.7989,2.5677 15.4339,3.4157 16.4509,2.8437 C17.4669,2.2717 16.5559,0.8317 16.5559,0.8317 L16.5559,0.8317 Z" id="Fill-66"></path>
                        </g>
                        <g id="Group-73" transform="translate(8.000000, 114.000000)" fill="#E2897D">
                            <path d="M6.4947,111.2303 C4.8407,112.5023 2.5517,122.5523 2.5517,122.5523 L0.1337,126.4963 C0.1337,126.4963 14.5097,134.3833 28.1207,134.5103 C41.7317,134.6373 56.1067,134.2553 67.4297,131.2023 C78.7517,128.1493 82.5677,125.6053 85.8757,125.2233 C89.1827,124.8423 94.0167,123.8243 94.0167,123.8243 L94.8487,121.3773 C94.7057,121.5453 94.6117,121.5143 94.6117,121.5143 C94.6117,121.5143 93.5367,117.1353 92.4607,114.9843 C91.3857,112.8333 92.9217,113.2173 92.7677,109.6843 C92.6147,106.1493 91.3857,106.5343 91.3857,106.5343 L83.9677,110.8483 C83.9677,110.8483 71.6277,113.3933 67.0477,114.1563 C64.3897,114.5993 43.1317,118.6083 39.6967,119.4993 C36.2627,120.3893 29.5197,122.1703 25.7037,119.7533 C25.7037,119.7533 15.2717,117.8453 11.7107,115.8103 C8.1477,113.7743 6.4947,111.2303 6.4947,111.2303" id="Fill-69"></path>
                            <path d="M76.2066,0.5555 C61.8316,9.4605 57.1256,7.8065 46.9476,9.3325 C36.7706,10.8595 25.3216,7.0435 25.3216,7.0435 C25.3216,7.0435 33.0816,13.4035 39.1876,15.1845 L40.0786,13.9125 L42.4956,14.9305 C42.4956,14.9305 48.2666,14.5635 53.9446,12.6405 C70.1016,7.1705 76.2066,0.5555 76.2066,0.5555" id="Fill-71"></path>
                        </g>
                        <path d="M91.8717,12.6444 C91.0377,13.6694 91.4727,15.3414 90.0897,14.2664 C88.7067,13.1904 86.7097,12.8064 86.2487,14.2664 C85.7877,15.7264 83.2527,13.9584 84.4047,13.4984 C85.5577,13.0374 86.1717,10.4254 83.8667,10.1184 C81.5627,9.8104 80.0257,9.5804 81.5627,9.2724 C83.0997,8.9654 85.0187,8.5044 83.4057,7.5054 C81.7937,6.5074 81.5627,5.4314 80.4107,6.3534 C79.2587,7.2754 80.6417,6.4304 79.5647,4.9704 C78.4897,3.5114 77.1067,4.4334 76.3387,3.4344 C75.5707,2.4354 75.2637,0.5914 73.8807,2.0514 C72.4977,3.5114 70.3467,3.3574 69.2707,2.4354 C68.1957,1.5134 66.5827,0.8224 65.7367,1.2834 C64.8927,1.7444 62.7407,2.8194 61.2817,1.3604 C59.8217,-0.0996 59.4377,-0.2526 57.8247,0.2844 C56.2117,0.8224 54.2137,-0.0996 53.1387,1.2064 C52.0627,2.5124 52.6777,3.3574 50.3727,3.0504 C48.0677,2.7434 46.2247,3.0504 45.6857,4.1254 C45.1487,5.2014 41.2307,6.3534 40.9237,8.0434 C40.6167,9.7334 39.2337,9.3494 37.6967,8.8114 C36.1607,8.2744 33.3947,8.8884 32.7807,9.8874 C32.1657,10.8864 30.2457,11.1934 28.7857,10.4254 C27.3257,9.6574 26.4807,10.5794 25.3287,10.5794 C24.1767,10.5794 24.1767,9.0424 22.1017,8.5044 C20.0277,7.9664 19.8317,8.6354 17.6817,10.1714 C15.5297,11.7074 14.1127,9.3494 12.5757,10.3484 C11.0397,11.3474 10.8867,12.1924 9.0427,12.1924 C7.1987,12.1924 4.2787,13.4214 5.3547,15.0344 C6.4307,16.6474 8.7347,18.1074 8.1207,17.3394 C7.5057,16.5714 7.5057,14.2664 9.5797,14.1124 C11.6537,13.9584 12.2767,13.7504 12.8137,12.9054 C13.3517,12.0604 16.5327,13.5614 18.6647,11.9214 C20.4327,10.5624 21.9487,11.7314 22.1017,12.8064 C22.2557,13.8824 21.9487,14.8044 19.4897,14.8044 C17.0317,14.8044 15.2657,13.8054 14.1887,15.0344 C13.1137,16.2634 13.3447,17.0324 11.5777,17.6464 C9.8097,18.2614 7.0447,17.9544 7.8127,19.2594 C8.5817,20.5654 9.8877,21.4114 9.6567,22.6404 C9.4267,23.8694 9.3497,23.8694 7.7357,24.0994 C6.1227,24.3304 5.5247,23.4464 4.5097,25.7894 C3.5047,28.1114 2.2237,31.1564 3.3577,31.3204 C4.6837,31.5134 3.1007,29.9844 4.7397,28.6324 C6.2997,27.3464 7.5827,23.7924 7.0447,26.3274 C6.5077,28.8624 5.2777,31.1674 7.3517,30.4764 C9.4267,29.7844 12.3457,29.4004 10.6557,30.3224 C8.9657,31.2444 8.3507,30.7834 7.2747,33.2414 C6.1997,35.6994 4.3557,36.6984 5.8927,36.8524 C7.4297,37.0054 11.5007,34.9314 9.6567,36.6984 C7.8127,38.4654 5.5857,40.6164 7.5057,40.0784 C9.4267,39.5404 10.7317,39.0804 10.0407,40.2324 C9.3497,41.3844 8.2737,42.5374 9.5037,42.3834 C10.7317,42.2294 11.5777,39.6174 11.8847,40.6164 C12.1917,41.6154 10.1947,43.5354 10.9627,44.4574 C11.7307,45.3794 14.0357,43.9194 13.4977,46.0704 C12.9607,48.2214 11.5007,49.2204 13.4217,49.6044 C15.3417,49.9884 16.4177,49.5274 16.0327,50.5264 C15.6487,51.5254 15.7257,52.2934 17.0317,52.0624 C18.3377,51.8324 19.9507,51.2174 19.1837,52.8314 C18.4147,54.4444 17.4157,55.8274 19.3367,55.9804 C21.2577,56.1344 22.2557,56.7484 22.3327,57.3634 C22.4097,57.9784 24.1767,59.2074 25.0987,59.0534 C26.0197,58.9004 26.5587,59.4374 26.2507,60.3594 C25.9427,61.2814 25.4817,62.8944 26.7887,62.5104 C28.0947,62.1264 30.0157,62.3564 28.8627,63.1254 C27.7107,63.8934 27.0187,65.9674 27.7867,65.7374 C28.5557,65.5064 29.4767,64.1234 30.0917,64.5084 C30.7067,64.8924 31.0907,64.7384 32.0127,65.6604 C32.9337,66.5824 34.2397,66.5824 34.4707,65.6604 C34.7007,64.7384 36.0837,65.3524 36.1607,65.6604 C36.1607,65.6604 33.7737,59.1184 32.8717,56.8624 C31.9697,54.6064 32.3297,51.0874 32.4207,49.4634 C32.5107,47.8394 31.6977,47.0274 31.0667,45.9444 C30.4347,44.8614 31.2467,44.5904 31.6077,43.6884 C31.9697,42.7864 31.6977,42.6054 31.2467,41.5224 C30.7957,40.4394 31.3377,38.9054 30.6157,37.9134 C29.8927,36.9204 30.1647,36.3794 30.6157,35.2964 C31.0667,34.2134 32.0587,31.9574 32.5107,30.6944 C32.9617,29.4314 33.6837,28.2574 34.9467,26.9044 C36.2107,25.5504 36.1197,25.2804 36.3907,24.2874 C36.6617,23.2944 41.1737,22.8434 42.0757,23.7464 C42.9777,24.6484 45.3237,25.3704 46.9477,25.7314 C48.5727,26.0924 47.0687,28.2684 46.1827,27.9034 C44.6807,27.2854 45.8867,29.2474 47.3297,28.3444 C48.7737,27.4424 49.0237,27.3554 49.1137,28.0774 C49.2037,28.7994 47.6707,29.5214 47.0387,31.0554 C46.4067,32.5894 47.2197,32.9504 46.0457,33.0404 C44.8727,33.1304 44.3317,32.1384 42.3467,33.1304 C40.3607,34.1234 40.3607,34.6654 42.0757,34.7544 C43.7897,34.8454 43.3387,36.0184 42.6167,37.1014 C41.8947,38.1844 40.9927,37.7324 41.2637,38.8154 C41.5337,39.8984 42.8477,39.8994 42.8877,41.0714 C42.9327,42.3654 41.2977,42.9694 43.6097,41.7934 C44.8687,41.1534 44.5047,40.5314 43.1587,39.8084 C41.9667,39.1674 42.7977,38.9964 45.1427,39.3564 C47.4897,39.7184 46.8577,38.5444 47.9407,38.1844 C49.0237,37.8234 49.6547,38.0934 51.0997,37.1914 C52.5427,36.2894 51.5507,34.5744 50.5577,32.6794 C49.5647,30.7844 52.4527,30.8744 53.5357,29.7914 C54.6187,28.7094 55.2497,29.4314 56.4237,29.8824 C57.5967,30.3334 56.1517,31.5964 54.9787,32.2284 C53.8067,32.8594 55.3407,34.3034 56.1517,35.5674 C56.9647,36.8304 57.0547,38.2744 56.4237,38.9964 C55.7917,39.7184 56.7837,41.7934 57.1447,42.4254 C57.5057,43.0564 58.8097,44.9464 60.6647,45.1234 C61.2997,45.1844 59.8597,47.0584 61.5657,45.7634 C63.2257,44.5054 60.2497,44.4364 58.9867,43.5344 C57.7237,42.6314 59.3097,41.9744 60.1227,41.1614 C60.9347,40.3494 61.3867,40.6204 61.0247,39.4474 C60.6637,38.2744 62.3787,39.1764 63.4617,40.2594 C64.5447,41.3424 65.4467,41.0714 66.3497,41.2514 C67.2517,41.4324 67.3417,42.4254 67.6117,43.4174 C67.8837,44.4104 69.8677,44.5004 70.0487,45.3124 C70.2287,46.1244 71.0417,47.2974 71.8527,46.8464 C72.6657,46.3954 73.1167,46.3054 73.3877,46.4854 C73.6577,46.6654 74.1087,46.5764 74.9217,45.9444 C75.7337,45.3124 76.0047,45.4934 77.0877,45.7634 C78.1697,46.0344 78.5307,45.4024 79.6137,47.1174 C80.6967,48.8314 79.6137,52.5314 78.9817,53.6144 C78.3507,54.6974 78.2607,56.5924 77.5387,58.3964 C76.8157,60.2014 73.3877,59.6604 73.3877,59.6604 L73.6497,65.7374 C73.6497,65.7374 74.8797,64.4314 75.4937,64.8154 C76.1077,65.1994 77.1067,66.3524 78.0287,65.9674 C78.9507,65.5834 78.3367,64.6614 79.6427,64.3544 C80.9477,64.0474 82.1777,64.3544 82.1777,62.6644 C82.1777,60.9744 82.5607,59.8984 83.4827,59.5914 C84.4047,59.2844 83.7907,57.8244 84.4817,57.8244 C85.1737,57.8244 87.1707,57.1334 86.7867,56.0574 C86.4017,54.9824 85.6347,53.4454 86.8627,53.5224 C88.0927,53.5994 90.1667,52.6004 90.0137,51.7554 C89.8587,50.9104 89.4757,50.1424 90.2437,50.5264 C91.0117,50.9104 91.7797,50.2954 91.1657,49.2974 C90.5507,48.2984 88.1697,45.8404 89.5527,45.1484 C90.9347,44.4574 91.5497,44.1504 91.0887,43.1514 C90.6277,42.1524 91.6267,41.2304 92.3937,40.7694 C93.1627,40.3094 92.6247,38.8494 94.1617,39.3874 C95.6977,39.9254 98.2727,39.6794 97.0037,39.1564 C95.8807,38.6944 94.6987,37.6974 95.3907,36.3144 C96.0817,34.9314 95.6977,34.0864 94.6987,33.8554 C93.7007,33.6254 92.8547,33.0114 93.6237,32.1654 C94.3927,31.3204 97.3887,29.7844 97.4647,28.5554 C97.5417,27.3264 96.0817,27.5564 96.1587,26.3274 C96.2357,25.0984 97.2837,25.5844 97.2337,24.5604 C97.1637,23.1014 98.6607,22.4994 99.6867,24.2094 C100.5907,25.7154 100.9767,23.0464 99.4427,21.8144 C97.8877,20.5654 97.2337,21.6414 96.6967,20.2584 C96.1587,18.8754 93.9317,17.7234 93.1627,17.9544 C92.3937,18.1844 92.8977,15.9434 92.9327,15.1884 C93.0097,13.4984 94.2217,14.4134 94.4457,13.9104 C94.6717,13.4084 93.1147,11.1174 91.8717,12.6444" id="Fill-74" fill="#B63A29"></path>
                        <path d="M19.1832,52.8309 C18.4142,54.4439 17.4152,55.8269 19.3362,55.9809 C21.2572,56.1349 22.2552,56.7489 22.3322,57.3639 C22.4102,57.9779 24.1762,59.2069 25.0982,59.0539 C26.0202,58.8999 26.5582,59.4379 26.2502,60.3599 C25.9432,61.2819 25.4822,62.8949 26.7882,62.5109 C28.0942,62.1259 30.0152,62.3569 28.8632,63.1249 C27.7102,63.8939 27.0192,65.9679 27.7872,65.7369 C28.5552,65.5069 29.4772,64.1239 30.0912,64.5079 C30.7062,64.8919 31.0902,64.7389 32.0122,65.6609 C32.9342,66.5819 34.2402,66.5819 34.4702,65.6609 C34.7012,64.7389 36.0832,65.3529 36.1612,65.6609 C36.1612,65.6609 33.7742,59.1189 32.8712,56.8629 C31.9692,54.6069 32.3292,51.0879 32.4202,49.4629 C32.5102,47.8389 31.6982,47.0269 31.0672,45.9439 C30.4352,44.8609 31.2462,44.5909 31.6082,43.6879 C31.9692,42.7859 31.6982,42.6049 31.2462,41.5229 C30.7952,40.4399 31.3372,38.9059 30.6162,37.9129 C29.8932,36.9209 30.1642,36.3789 30.6162,35.2959 C31.0672,34.2139 32.0592,31.9569 32.5102,30.6939 C32.9612,29.4309 33.6832,28.2579 34.9472,26.9039 C36.2102,25.5509 36.1202,25.2799 36.3902,24.2879 C36.3902,24.2879 35.3022,25.4069 33.9932,26.2789 C32.6832,27.1519 30.6752,28.5489 30.1522,28.8109 C29.6282,29.0729 29.1042,29.8579 29.4542,30.5569 C29.8022,31.2549 30.2392,33.1759 29.6282,33.7869 C29.0172,34.3979 28.4932,35.1839 28.7552,35.9689 C29.0172,36.7549 29.6282,37.8899 29.0172,38.2389 C28.4062,38.5879 28.6672,39.2869 28.3192,40.2469 C27.9692,41.2069 26.1362,42.6039 26.1362,42.6039 C26.1362,42.6039 23.7792,41.9929 23.9542,43.3899 C24.1282,44.7859 23.5172,45.9209 22.6442,46.0959 C21.7712,46.2699 20.8112,48.0159 20.8112,48.7139 C20.8112,49.4129 20.6362,49.8499 19.8512,50.6349 C19.0652,51.4209 19.1832,52.8309 19.1832,52.8309 M77.0872,45.7639 C78.1692,46.0349 78.5312,45.4029 79.6142,47.1169 C80.6972,48.8319 79.6142,52.5319 78.9822,53.6139 C78.3502,54.6969 78.2602,56.5919 77.5382,58.3969 C76.8162,60.2019 73.3872,59.6599 73.3872,59.6599 L73.6502,65.7369 C73.6502,65.7369 74.8792,64.4309 75.4942,64.8149 C76.1082,65.1999 77.1072,66.3519 78.0292,65.9679 C78.9512,65.5829 78.3362,64.6619 79.6422,64.3539 C80.9482,64.0469 82.1772,64.3539 82.1772,62.6639 C82.1772,60.9739 82.5612,59.8989 83.4832,59.5919 C84.4052,59.2839 83.7902,57.8249 84.4822,57.8249 C85.1732,57.8249 87.1702,57.1329 86.7872,56.0579 C86.4022,54.9819 85.6342,53.4459 86.8632,53.5219 C88.0922,53.5999 90.1662,52.6009 90.0132,51.7559 C89.8592,50.9109 89.4752,50.1429 90.2442,50.5259 C91.0112,50.9109 91.7802,50.2959 91.1652,49.2969 C90.5502,48.2989 88.1692,45.8399 89.5522,45.1489 C90.9352,44.4569 91.5492,44.1499 91.0882,43.1509 C91.0442,43.0559 91.0132,42.9599 90.9952,42.8669 C90.9952,42.8669 89.9502,41.9929 89.0772,42.0799 C88.2042,42.1669 87.0692,41.9049 86.8942,41.0329 C86.7192,40.1599 85.2362,37.3659 83.9262,38.4139 C82.6172,39.4609 82.8782,41.2939 82.0932,41.4689 C81.3072,41.6429 78.8632,41.3819 79.1242,42.4289 C79.3872,43.4769 79.2992,44.9609 78.9512,44.9609 C78.9512,44.9609 77.2912,44.7859 77.1172,44.4369 C76.9432,44.0879 75.0222,43.3019 74.4112,43.3899 C73.7992,43.4769 73.1892,42.7779 72.9272,41.7309 C72.6642,40.6839 72.2282,37.8029 71.0932,37.8899 C69.9582,37.9769 68.1252,36.2309 67.9512,35.7949 C67.7762,35.3579 66.2922,36.5809 67.4272,37.6279 C68.5622,38.6759 70.9192,38.2389 70.6572,40.1599 C70.3952,42.0799 69.3482,42.4289 71.0062,43.6509 C72.6642,44.8729 73.3872,46.4859 73.3872,46.4859 C73.6582,46.6659 74.1092,46.5759 74.9212,45.9439 C75.7342,45.3119 76.0042,45.4929 77.0872,45.7639" id="Fill-76" fill="#A23324"></path>
                    </g>
                </g>
            </g>
        </g>
    </g>
</svg>