<?xml version="1.0" encoding="UTF-8"?>
<svg width="33px" height="33px" viewBox="0 0 33 33" version="1.1" xmlns="http://www.w3.org/2000/svg" xmlns:xlink="http://www.w3.org/1999/xlink">
    <!-- Generator: Sketch 46.1 (44463) - http://www.bohemiancoding.com/sketch -->
    <title>social-pinterest</title>
    <desc>Created with Sketch.</desc>
    <defs>
        <polygon id="path-1" points="0 32.9978361 0 0 32.9978361 0 32.9978361 32.9978361"></polygon>
    </defs>
    <g id="portfolio" stroke="none" stroke-width="1" fill="none" fill-rule="evenodd">
        <g id="cs-spacebar" transform="translate(-796.000000, -10934.000000)">
            <g id="footer" transform="translate(0.000000, 10527.000000)">
                <g id="Group-6" transform="translate(516.000000, 407.000000)">
                    <g id="social-pinterest" transform="translate(280.000000, 0.000000)">
                        <mask id="mask-2" fill="white">
                            <use xlink:href="#path-1"></use>
                        </mask>
                        <g id="Clip-2"></g>
                        <path d="M16.4988775,-8.1147541e-05 C7.38682008,-8.1147541e-05 -4.05737705e-05,7.38677951 -4.05737705e-05,16.4988369 C-4.05737705e-05,23.4884803 4.34879139,29.4639148 10.4862504,31.8679107 C10.3420783,30.5625172 10.2118365,28.554927 10.5435947,27.129841 C10.8432996,25.8423 12.478152,18.9288 12.478152,18.9288 C12.478152,18.9288 11.9846398,17.940423 11.9846398,16.4792262 C11.9846398,14.18505 13.3143775,12.4722959 14.9700578,12.4722959 C16.3776971,12.4722959 17.0575783,13.5292426 17.0575783,14.7964967 C17.0575783,16.2119803 16.1562996,18.3284434 15.6911889,20.2897795 C15.3024922,21.9320705 16.5147012,23.2712754 18.1344061,23.2712754 C21.0668078,23.2712754 23.3209512,20.1792836 23.3209512,15.7158984 C23.3209512,11.7656361 20.4824102,9.00350902 16.4292258,9.00350902 C11.7348406,9.00350902 8.97920533,12.5246361 8.97920533,16.1636975 C8.97920533,17.5816156 9.52546352,19.1023205 10.2071029,19.9288082 C10.341943,20.0921852 10.3616889,20.2354107 10.3216561,20.4020336 C10.1962832,20.9232713 9.91794713,22.0439189 9.86330779,22.2731607 C9.79135697,22.5751648 9.62419303,22.6391361 9.31150451,22.493882 C7.25089795,21.5345828 5.96254549,18.5219803 5.96254549,16.1020254 C5.96254549,10.8974926 9.7440209,6.11790246 16.8640414,6.11790246 C22.5875127,6.11790246 27.0353447,10.1962426 27.0353447,15.6467877 C27.0353447,21.3330664 23.4501111,25.9092467 18.4738734,25.9092467 C16.8020988,25.9092467 15.2302709,25.0406975 14.6922627,24.0147221 C14.6922627,24.0147221 13.8649635,27.1648697 13.6643939,27.936718 C13.2919266,29.3699189 12.2863734,31.1662549 11.6137955,32.2620172 C13.1574922,32.7399762 14.798025,32.9978902 16.4988775,32.9978902 C25.6110701,32.9978902 32.9979307,25.6110295 32.9979307,16.4988369 C32.9979307,7.38677951 25.6110701,-8.1147541e-05 16.4988775,-8.1147541e-05" id="Fill-1" fill="#FFFFFF" mask="url(#mask-2)"></path>
                    </g>
                </g>
            </g>
        </g>
    </g>
</svg>