<?xml version="1.0" encoding="UTF-8"?>
<svg width="33px" height="33px" viewBox="0 0 33 33" version="1.1" xmlns="http://www.w3.org/2000/svg" xmlns:xlink="http://www.w3.org/1999/xlink">
    <!-- Generator: Sketch 46.1 (44463) - http://www.bohemiancoding.com/sketch -->
    <title>social-linkedin</title>
    <desc>Created with Sketch.</desc>
    <defs></defs>
    <g id="portfolio" stroke="none" stroke-width="1" fill="none" fill-rule="evenodd">
        <g id="cs-spacebar" transform="translate(-516.000000, -10934.000000)" fill-rule="nonzero" fill="#FFFFFF">
            <g id="footer" transform="translate(0.000000, 10527.000000)">
                <g id="Group-6" transform="translate(516.000000, 407.000000)">
                    <g id="social-linkedin">
                        <path d="M7.33333333,3.66666667 C7.33333333,5.68333333 6.05,7.33333333 3.66666667,7.33333333 C1.46666667,7.33333333 0,5.68333333 0,3.85 C0,1.83333333 1.46666667,0 3.66666667,0 C5.86666667,0 7.33333333,1.65 7.33333333,3.66666667 Z M0,33 L7.33333333,33 L7.33333333,9.16666667 L0,9.16666667 L0,33 Z M24.9333333,9.53333333 C21.0833333,9.53333333 18.8833333,11.7333333 17.9666667,13.2 L17.7833333,13.2 L17.4166667,10.0833333 L10.8166667,10.0833333 C10.8166667,12.1 11,14.4833333 11,17.2333333 L11,33 L18.3333333,33 L18.3333333,19.9833333 C18.3333333,19.25 18.3333333,18.7 18.5166667,18.15 C19.0666667,16.8666667 19.9833333,15.2166667 22,15.2166667 C24.5666667,15.2166667 25.6666667,17.4166667 25.6666667,20.35 L25.6666667,33 L33,33 L33,19.4333333 C33,12.65 29.5166667,9.53333333 24.9333333,9.53333333 Z" id="Shape"></path>
                    </g>
                </g>
            </g>
        </g>
    </g>
</svg>