<?xml version="1.0" encoding="UTF-8"?>
<svg width="33px" height="33px" viewBox="0 0 33 33" version="1.1" xmlns="http://www.w3.org/2000/svg" xmlns:xlink="http://www.w3.org/1999/xlink">
    <!-- Generator: Sketch 46.1 (44463) - http://www.bohemiancoding.com/sketch -->
    <title>social-instagram</title>
    <desc>Created with Sketch.</desc>
    <defs></defs>
    <g id="portfolio" stroke="none" stroke-width="1" fill="none" fill-rule="evenodd">
        <g id="cs-spacebar" transform="translate(-703.000000, -10934.000000)" fill-rule="nonzero" fill="#FFFFFF">
            <g id="footer" transform="translate(0.000000, 10527.000000)">
                <g id="Group-6" transform="translate(516.000000, 407.000000)">
                    <g id="social-instagram" transform="translate(187.000000, 0.000000)">
                        <path d="M32.9007433,9.69706833 C32.8733285,8.32826284 32.6140067,6.97401567 32.133805,5.69191333 C31.7194889,4.59092408 31.0700046,3.5935579 30.23064,2.76936 C29.4064421,1.92999537 28.4090759,1.2805111 27.3080867,0.866195 C26.0259843,0.385993324 24.6717372,0.126671508 23.3029317,0.0992566667 C21.543005,0.01903 20.9811617,0 16.5,0 C12.0188383,0 11.456995,0.01903 9.69706833,0.0992566667 C8.32826284,0.126671508 6.97401567,0.385993324 5.69191333,0.866195 C4.59092408,1.2805111 3.5935579,1.92999537 2.76936,2.76936 C1.92999537,3.5935579 1.2805111,4.59092408 0.866195,5.69191333 C0.385993324,6.97401567 0.126671508,8.32826284 0.0992566667,9.69706833 C0.01903,11.456995 0,12.0188383 0,16.5 C0,20.9811617 0.01903,21.543005 0.0992566667,23.3029317 C0.126671508,24.6717372 0.385993324,26.0259843 0.866195,27.3080867 C1.2805111,28.4090759 1.92999537,29.4064421 2.76936,30.23064 C3.59352789,31.0700413 4.59090268,31.7195312 5.69191333,32.133805 C6.97401567,32.6140067 8.32826284,32.8733285 9.69706833,32.9007433 C11.456995,32.9810983 12.0188383,33 16.5,33 C20.9811617,33 21.543005,32.9810983 23.3029317,32.9007433 C24.6717372,32.8733285 26.0259843,32.6140067 27.3080867,32.133805 C29.5244665,31.2766095 31.2765912,29.5244848 32.1337867,27.308105 C32.6139883,26.0260027 32.8733102,24.6717555 32.900725,23.30295 C32.98097,21.543005 33,20.9811617 33,16.5 C33,12.0188383 32.98097,11.456995 32.9007433,9.69706833 Z M29.9308717,23.16743 C29.9184878,24.213704 29.7262794,25.2500571 29.3626483,26.2311867 C28.807619,27.6702212 27.6702179,28.807629 26.2311867,29.3626667 C25.2500536,29.726285 24.2137027,29.9184931 23.16743,29.93089 C21.4277617,30.0102 20.9059767,30.0269933 16.5,30.0269933 C12.0940233,30.0269933 11.5722383,30.0102 9.83257,29.9308717 C8.78629834,29.9184806 7.74994747,29.7262788 6.76881333,29.3626667 C6.05210883,29.0982196 5.40380435,28.6764662 4.87158833,28.12843 C4.32354321,27.5962106 3.90178327,26.9478995 3.63733333,26.2311867 C3.27370231,25.2500571 3.08149383,24.213704 3.06911,23.16743 C2.9898,21.4275233 2.97300667,20.9057567 2.97300667,16.5 C2.97300667,12.0942433 2.9898,11.5724767 3.06912833,9.83257 C3.08151938,8.78629834 3.27372125,7.74994747 3.63733333,6.76881333 C3.90178036,6.05210883 4.32353379,5.40380435 4.87157,4.87158833 C5.40378944,4.32354321 6.05210055,3.90178327 6.76881333,3.63733333 C7.74994636,3.27371499 8.78629727,3.08150692 9.83257,3.06911 C11.5724767,2.9898 12.0942433,2.97300667 16.5,2.97300667 C20.9057567,2.97300667 21.4275233,2.9898 23.16743,3.06912833 C24.2137027,3.08152526 25.2500536,3.27373333 26.2311867,3.63735167 C26.9478912,3.90179869 27.5961956,4.32355212 28.1284117,4.87158833 C28.6764545,5.40380249 29.0982143,6.05210711 29.3626667,6.76881333 C29.726285,7.74994636 29.9184931,8.78629727 29.93089,9.83257 C30.0102183,11.5724033 30.0270117,12.0943533 30.0270117,16.5 C30.0270117,20.9056467 30.0102,21.4275233 29.9308717,23.16743 L29.9308717,23.16743 Z M16.5,8.02699333 C11.8204876,8.02699333 8.02699333,11.8204876 8.02699333,16.5 C8.02699333,21.1795124 11.8204876,24.9730067 16.5,24.9730067 C21.1795124,24.9730067 24.9730067,21.1795124 24.9730067,16.5 C24.972956,11.8205086 21.1794914,8.02704396 16.5,8.02699333 Z M16.5,22 C13.4624339,22 11,19.5375661 11,16.5 C11,13.4624339 13.4624339,11 16.5,11 C19.5375661,11 22,13.4624339 22,16.5 C22,17.9586907 21.4205374,19.3576372 20.3890873,20.3890873 C19.3576372,21.4205374 17.9586907,22 16.5,22 Z M27.2877367,7.6923 C27.2877367,8.7858238 26.4012605,9.6723 25.3077367,9.6723 C24.2142129,9.6723 23.3277367,8.7858238 23.3277367,7.6923 C23.3277367,6.5987762 24.2142129,5.7123 25.3077367,5.7123 C26.4012605,5.7123 27.2877367,6.5987762 27.2877367,7.6923 L27.2877367,7.6923 Z" id="Shape"></path>
                    </g>
                </g>
            </g>
        </g>
    </g>
</svg>