<?xml version="1.0" encoding="UTF-8"?>
<svg width="34px" height="33px" viewBox="0 0 34 33" version="1.1" xmlns="http://www.w3.org/2000/svg" xmlns:xlink="http://www.w3.org/1999/xlink">
    <!-- Generator: Sketch 46.1 (44463) - http://www.bohemiancoding.com/sketch -->
    <title>social-github</title>
    <desc>Created with Sketch.</desc>
    <defs>
        <polygon id="path-1" points="6.37531206e-16 32.767318 6.37531206e-16 -0.0004125 33.5970937 -0.0004125 33.5970937 32.767318"></polygon>
    </defs>
    <g id="portfolio" stroke="none" stroke-width="1" fill="none" fill-rule="evenodd">
        <g id="cs-spacebar" transform="translate(-609.000000, -10935.000000)">
            <g id="footer" transform="translate(0.000000, 10527.000000)">
                <g id="Group-6" transform="translate(516.000000, 407.000000)">
                    <g id="social-github" transform="translate(93.000000, 1.000000)">
                        <mask id="mask-2" fill="white">
                            <use xlink:href="#path-1"></use>
                        </mask>
                        <g id="Clip-2"></g>
                        <path d="M16.7976188,-0.000515625 C7.521525,-0.000515625 -0.0004125,7.52142187 -0.0004125,16.7995781 C-0.0004125,24.2204531 4.81243125,30.5172656 11.4887438,32.7385781 C12.3292125,32.8922344 12.6354938,32.3745469 12.6354938,31.9290469 C12.6354938,31.5299531 12.6210563,30.4739531 12.6128063,29.0714531 C7.9402125,30.0872344 6.9543375,26.8202344 6.9543375,26.8202344 C6.19018125,24.8794219 5.08880625,24.3627656 5.08880625,24.3627656 C3.5635875,23.3201719 5.20430625,23.3418281 5.20430625,23.3418281 C6.8904,23.4604219 7.777275,25.0722656 7.777275,25.0722656 C9.27568125,27.6400781 11.7084,26.8986094 12.6664313,26.4685781 C12.8190563,25.3826719 13.2521813,24.6422344 13.7327438,24.2225156 C10.0027125,23.7986719 6.08086875,22.3580156 6.08086875,15.9199219 C6.08086875,14.0863594 6.7357125,12.5869219 7.810275,11.4123281 C7.637025,10.9874531 7.06055625,9.27970313 7.97424375,6.96764062 C7.97424375,6.96764062 9.38499375,6.51492187 12.5942438,8.68879687 C13.9338375,8.31651562 15.3714,8.12985937 16.7996813,8.12367187 C18.2259,8.12985937 19.6634625,8.31651562 21.0051188,8.68879687 C24.2123063,6.51492187 25.6199625,6.96764062 25.6199625,6.96764062 C26.5367438,9.27970313 25.960275,10.9874531 25.787025,11.4123281 C26.86365,12.5869219 27.5143688,14.0863594 27.5143688,15.9199219 C27.5143688,22.3734844 23.5863375,23.7935156 19.8439313,24.2101406 C20.4472125,24.7278281 20.9844938,25.7539219 20.9844938,27.3203906 C20.9844938,29.5664531 20.9638688,31.3783594 20.9638688,31.9290469 C20.9638688,32.3776406 21.266025,32.9004844 22.1188688,32.7365156 C28.7879625,30.5110781 33.5977125,24.2183906 33.5977125,16.7995781 C33.5977125,7.52142187 26.075775,-0.000515625 16.7976188,-0.000515625" id="Fill-1" fill="#FEFEFE" mask="url(#mask-2)"></path>
                    </g>
                </g>
            </g>
        </g>
    </g>
</svg>