<?xml version="1.0" encoding="UTF-8"?>
<svg width="37px" height="33px" viewBox="0 0 37 33" version="1.1" xmlns="http://www.w3.org/2000/svg" xmlns:xlink="http://www.w3.org/1999/xlink">
    <!-- Generator: Sketch 46.1 (44463) - http://www.bohemiancoding.com/sketch -->
    <title>social-vimeo</title>
    <desc>Created with Sketch.</desc>
    <defs></defs>
    <g id="portfolio" stroke="none" stroke-width="1" fill="none" fill-rule="evenodd">
        <g id="cs-spacebar" transform="translate(-889.000000, -10934.000000)" fill-rule="nonzero" fill="#FFFFFF">
            <g id="footer" transform="translate(0.000000, 10527.000000)">
                <g id="Group-6" transform="translate(516.000000, 407.000000)">
                    <g id="social-vimeo" transform="translate(373.000000, 0.000000)">
                        <path d="M36.8155622,7.92035291 C34.7476417,19.827526 23.1972987,29.9072687 19.7233567,32.211151 C16.2494148,34.5109081 13.0776441,31.2891856 11.928571,28.8471116 C10.6109398,26.06884 6.66832405,10.993571 5.63436382,9.74572068 C4.60040358,8.49580783 1.50263406,10.993571 1.50263406,10.993571 L0,8.98051001 C0,8.98051001 6.29215164,1.29746485 11.0816692,0.336310738 C16.158969,-0.680532555 16.1507466,8.30605209 17.3717653,13.2933281 C18.5516722,18.1238494 19.3471843,20.883558 20.379089,20.883558 C21.4109936,20.883558 23.3843571,18.191914 25.5427234,14.066789 C27.7072564,9.93341387 25.450222,6.28680344 21.2239352,8.88150701 C22.9156833,-1.48699448 38.8834827,-3.98063249 36.8155622,7.92035291 Z" id="Shape"></path>
                    </g>
                </g>
            </g>
        </g>
    </g>
</svg>